<?xml version="1.0" encoding="UTF-8" standalone="no"?>
<!-- Created with Inkscape (http://www.inkscape.org/) -->

<svg
   xmlns:dc="http://purl.org/dc/elements/1.1/"
   xmlns:cc="http://creativecommons.org/ns#"
   xmlns:rdf="http://www.w3.org/1999/02/22-rdf-syntax-ns#"
   xmlns:svg="http://www.w3.org/2000/svg"
   xmlns="http://www.w3.org/2000/svg"
   xmlns:sodipodi="http://sodipodi.sourceforge.net/DTD/sodipodi-0.dtd"
   xmlns:inkscape="http://www.inkscape.org/namespaces/inkscape"
   width="35"
   height="44"
   id="svg2"
   version="1.1"
   inkscape:version="0.48.4 r9939"
   sodipodi:docname="eight.svg"
   inkscape:export-filename="/home/victor/Projects/TCC/aventura-do-saber/src/data/img/sprite/eight.png"
   inkscape:export-xdpi="90"
   inkscape:export-ydpi="90">
  <defs
     id="defs4" />
  <sodipodi:namedview
     id="base"
     pagecolor="#ffffff"
     bordercolor="#666666"
     borderopacity="1.0"
     inkscape:pageopacity="0.0"
     inkscape:pageshadow="2"
     inkscape:zoom="1"
     inkscape:cx="17.5"
     inkscape:cy="22"
     inkscape:document-units="px"
     inkscape:current-layer="layer1"
     showgrid="false"
     inkscape:window-width="1364"
     inkscape:window-height="718"
     inkscape:window-x="0"
     inkscape:window-y="0"
     inkscape:window-maximized="1" />
  <metadata
     id="metadata7">
    <rdf:RDF>
      <cc:Work
         rdf:about="">
        <dc:format>image/svg+xml</dc:format>
        <dc:type
           rdf:resource="http://purl.org/dc/dcmitype/StillImage" />
        <dc:title></dc:title>
      </cc:Work>
    </rdf:RDF>
  </metadata>
  <g
     inkscape:label="Layer 1"
     inkscape:groupmode="layer"
     id="layer1"
     transform="translate(0,-1008.3622)">
    <path
       style="fill:#655316;fill-opacity:1;stroke:#000000;stroke-width:2;stroke-linecap:round;stroke-linejoin:round;stroke-miterlimit:4;stroke-opacity:1;stroke-dasharray:none;stroke-dashoffset:0"
       d="m 7.3835616,28.780822 c 0,0 1.8082192,-3.013699 9.8698634,-3.013699 8.061643,0 10.321917,3.164384 10.321917,3.164384 l 0.07534,-4.520548 -6.931507,-2.938356 -7.458904,-0.07534 -6.7808219,3.842466 z"
       id="path9156"
       inkscape:connector-curvature="0"
       transform="translate(0,1008.3622)" />
    <path
       sodipodi:nodetypes="csccc"
       inkscape:connector-curvature="0"
       id="path9154"
       d="m 31.568493,1021.6225 c 0,0 -0.30137,6.4041 -3.691781,8.6643 -3.390411,2.2603 -4.671233,-0.678 -4.671233,-0.678 l 4.746575,-6.4041 z"
       style="fill:#655316;fill-opacity:1;stroke:#000000;stroke-width:2;stroke-linecap:round;stroke-linejoin:round;stroke-miterlimit:4;stroke-opacity:1;stroke-dasharray:none;stroke-dashoffset:0" />
    <path
       style="fill:#655316;fill-opacity:1;stroke:#000000;stroke-width:2;stroke-linecap:round;stroke-linejoin:round;stroke-miterlimit:4;stroke-opacity:1;stroke-dasharray:none;stroke-dashoffset:0"
       d="m 3.4657534,13.410959 c 0,0 0.3013699,6.404109 3.6917809,8.664383 3.3904107,2.260274 4.6712327,-0.678082 4.6712327,-0.678082 L 7.0821918,14.993151 z"
       id="path9152"
       inkscape:connector-curvature="0"
       transform="translate(0,1008.3622)"
       sodipodi:nodetypes="csccc" />
    <path
       style="fill:#655316;fill-opacity:1;stroke:#000000;stroke-width:1.99999988;stroke-linecap:round;stroke-linejoin:round;stroke-miterlimit:4;stroke-opacity:1;stroke-dasharray:none;stroke-dashoffset:0"
       d="m 9.4931506,1021.9238 c 0,0 0.150685,-4.2545 7.6849314,-4.2545 7.910959,0 7.986302,4.0566 7.986302,4.0566 l -0.226028,-8.0144 -15.8219176,0 z"
       id="path9150"
       inkscape:connector-curvature="0"
       sodipodi:nodetypes="cscccc" />
    <path
       style="fill:#bc9c31;fill-opacity:1;stroke:#000000;stroke-width:2;stroke-linecap:round;stroke-linejoin:round;stroke-miterlimit:4;stroke-opacity:1;stroke-dasharray:none;stroke-dashoffset:0"
       d="m 17.460299,1009.3622 c -7.7820454,0 -14.0906397,4.8701 -14.0906397,10.8777 0,3.7298 2.4299656,7.0295 6.1362461,8.9892 C 4.6672708,1031.2768 1.4,1035.1042 1.4,1039.5025 c 0,6.5499 7.2243586,11.8597 16.136055,11.8597 8.911696,0 16.136054,-5.3098 16.136054,-11.8597 0,-4.4318 -3.319985,-8.2755 -8.219539,-10.3111 3.680669,-1.9626 6.098368,-5.237 6.098368,-8.9515 0,-6.0076 -6.308595,-10.8777 -14.090639,-10.8777 z m -0.151513,5.1367 c 4.35125,0 7.878637,2.5366 7.878637,5.6655 0,3.1289 -3.527387,5.6654 -7.878637,5.6654 -4.35125,0 -7.8786367,-2.5365 -7.8786367,-5.6654 0,-3.1289 3.5273867,-5.6655 7.8786367,-5.6655 z m 0.151513,17.3741 c 5.77378,0 10.454345,3.2129 10.454345,7.1763 0,3.9633 -4.680565,7.1762 -10.454345,7.1762 -5.773781,0 -10.4543457,-3.2129 -10.4543457,-7.1762 0,-3.9634 4.6805647,-7.1763 10.4543457,-7.1763 z"
       id="path16227"
       inkscape:connector-curvature="0" />
  </g>
</svg>
