<?xml version="1.0" encoding="UTF-8" standalone="no"?>
<!-- Created with Inkscape (http://www.inkscape.org/) -->

<svg
   xmlns:dc="http://purl.org/dc/elements/1.1/"
   xmlns:cc="http://creativecommons.org/ns#"
   xmlns:rdf="http://www.w3.org/1999/02/22-rdf-syntax-ns#"
   xmlns:svg="http://www.w3.org/2000/svg"
   xmlns="http://www.w3.org/2000/svg"
   xmlns:sodipodi="http://sodipodi.sourceforge.net/DTD/sodipodi-0.dtd"
   xmlns:inkscape="http://www.inkscape.org/namespaces/inkscape"
   width="35"
   height="44"
   id="svg2"
   version="1.1"
   inkscape:version="0.48.4 r9939"
   sodipodi:docname="five.svg"
   inkscape:export-filename="/home/victor/Projects/TCC/aventura-do-saber/src/data/img/sprite/five.png"
   inkscape:export-xdpi="90"
   inkscape:export-ydpi="90">
  <defs
     id="defs4" />
  <sodipodi:namedview
     id="base"
     pagecolor="#ffffff"
     bordercolor="#666666"
     borderopacity="1.0"
     inkscape:pageopacity="0.0"
     inkscape:pageshadow="2"
     inkscape:zoom="1"
     inkscape:cx="17.5"
     inkscape:cy="22"
     inkscape:document-units="px"
     inkscape:current-layer="layer1"
     showgrid="false"
     inkscape:window-width="1364"
     inkscape:window-height="718"
     inkscape:window-x="0"
     inkscape:window-y="0"
     inkscape:window-maximized="1" />
  <metadata
     id="metadata7">
    <rdf:RDF>
      <cc:Work
         rdf:about="">
        <dc:format>image/svg+xml</dc:format>
        <dc:type
           rdf:resource="http://purl.org/dc/dcmitype/StillImage" />
        <dc:title></dc:title>
      </cc:Work>
    </rdf:RDF>
  </metadata>
  <g
     inkscape:label="Layer 1"
     inkscape:groupmode="layer"
     id="layer1"
     transform="translate(0,-1008.3622)">
    <path
       style="fill:#655316;fill-opacity:1;stroke:#000000;stroke-width:2;stroke-linecap:round;stroke-linejoin:round;stroke-miterlimit:4;stroke-opacity:1;stroke-dasharray:none;stroke-dashoffset:0"
       d="m 1.3561644,31.191781 1.0547945,5.5 c 0,0 5.1232877,6.404109 16.1986301,6.404109 11.075343,0 8.890411,-5.801369 8.890411,-5.801369 L 12.506849,38.19863 z"
       id="path9032"
       inkscape:connector-curvature="0"
       transform="translate(0,1008.3622)" />
    <path
       style="fill:#655316;fill-opacity:1;stroke:#000000;stroke-width:2;stroke-linecap:round;stroke-linejoin:round;stroke-miterlimit:4;stroke-opacity:1;stroke-dasharray:none;stroke-dashoffset:0"
       d="M 12.205479,9.9452055 30.287671,11.376712 31.869863,8.2876712 12.356164,7.2328767 11.60274,9.1164384 z"
       id="path9024"
       inkscape:connector-curvature="0"
       transform="translate(0,1008.3622)" />
    <path
       style="fill:#655316;fill-opacity:1;stroke:#000000;stroke-width:2;stroke-linecap:round;stroke-linejoin:round;stroke-miterlimit:4;stroke-opacity:1;stroke-dasharray:none;stroke-dashoffset:0"
       d="M 3.0136986,18.383562 3.5410959,21.09589 7.1575342,25.842466 7.0068493,23.280822 z"
       id="path9026"
       inkscape:connector-curvature="0"
       transform="translate(0,1008.3622)" />
    <path
       style="fill:#655316;fill-opacity:1;stroke:#000000;stroke-width:2;stroke-linecap:round;stroke-linejoin:round;stroke-miterlimit:4;stroke-opacity:1;stroke-dasharray:none;stroke-dashoffset:0"
       d="m 7.3835616,25.993151 c 0,0 3.6164384,-4.897261 11.6780824,-5.047946 8.061644,-0.150684 9.493151,6.630137 9.493151,6.630137 0,0 0,-9.041095 -9.493151,-9.116438 -9.4931508,-0.07534 -11.452055,4.972603 -11.452055,4.972603 z"
       id="path9028"
       inkscape:connector-curvature="0"
       transform="translate(0,1008.3622)" />
    <path
       sodipodi:nodetypes="cccscsccscsccccc"
       inkscape:connector-curvature="0"
       id="path7017"
       d="m 9.3443648,1009.3623 -6.0267647,17.0253 4.1091519,5.6751 c 0,0 4.355679,-5.5976 12.601432,-5.1076 8.35528,0.4966 8.35528,10.0023 8.35528,10.0023 0,0 0.822015,8.5748 -10.272892,8.4418 -9.3186342,-0.1121 -10.68382,-8.5126 -10.68382,-8.5126 L 1.4,1039.4404 c 0,0 4.1091519,11.6339 18.080293,11.9176 13.971116,0.2839 14.039611,-13.833 14.039611,-13.833 0,0 0.755795,-15.6775 -14.587502,-15.6775 -8.834689,0 -10.1359282,3.9725 -10.1359282,3.9725 l 3.8352242,-10.4989 19.176063,1.4188 -0.547891,-6.8101 z"
       style="fill:#bc9c31;fill-opacity:1;stroke:#000000;stroke-width:2;stroke-linecap:round;stroke-linejoin:round;stroke-miterlimit:4;stroke-opacity:1;stroke-dasharray:none;stroke-dashoffset:0" />
  </g>
</svg>
