<?xml version="1.0" encoding="UTF-8" standalone="no"?>
<!-- Created with Inkscape (http://www.inkscape.org/) -->

<svg
   xmlns:dc="http://purl.org/dc/elements/1.1/"
   xmlns:cc="http://creativecommons.org/ns#"
   xmlns:rdf="http://www.w3.org/1999/02/22-rdf-syntax-ns#"
   xmlns:svg="http://www.w3.org/2000/svg"
   xmlns="http://www.w3.org/2000/svg"
   xmlns:sodipodi="http://sodipodi.sourceforge.net/DTD/sodipodi-0.dtd"
   xmlns:inkscape="http://www.inkscape.org/namespaces/inkscape"
   width="154"
   height="390"
   id="svg3077"
   version="1.1"
   inkscape:version="0.48.4 r9939"
   sodipodi:docname="milena.svg"
   inkscape:export-filename="/home/victor/Projects/TCC/aventura-do-saber/src/data/img/other/milena.png"
   inkscape:export-xdpi="90"
   inkscape:export-ydpi="90">
  <defs
     id="defs3079" />
  <sodipodi:namedview
     id="base"
     pagecolor="#ffffff"
     bordercolor="#666666"
     borderopacity="1.0"
     inkscape:pageopacity="0.0"
     inkscape:pageshadow="2"
     inkscape:zoom="1"
     inkscape:cx="77"
     inkscape:cy="195"
     inkscape:document-units="px"
     inkscape:current-layer="layer1"
     showgrid="false"
     inkscape:window-width="1364"
     inkscape:window-height="718"
     inkscape:window-x="0"
     inkscape:window-y="0"
     inkscape:window-maximized="1" />
  <metadata
     id="metadata3082">
    <rdf:RDF>
      <cc:Work
         rdf:about="">
        <dc:format>image/svg+xml</dc:format>
        <dc:type
           rdf:resource="http://purl.org/dc/dcmitype/StillImage" />
        <dc:title></dc:title>
      </cc:Work>
    </rdf:RDF>
  </metadata>
  <g
     inkscape:label="Layer 1"
     inkscape:groupmode="layer"
     id="layer1"
     transform="translate(0,-662.36218)">
    <g
       id="g3906"
       transform="matrix(0.66334274,0,0,0.66334274,-441.41722,499.62829)">
      <path
         sodipodi:nodetypes="csccscccsccccccccsccccsc"
         inkscape:connector-curvature="0"
         id="path3811"
         d="m 847.71308,291.27873 c 0,0 -18.73311,-46.65582 -71.81023,-28.88217 -53.07713,17.77364 -53.07713,-14.81138 -53.07713,-14.81138 0,0 -3.12218,24.43876 9.36655,29.62274 0,0 -20.6064,-7.40568 -40.58839,17.77365 -19.98198,25.17934 -9.36654,50.35868 -9.36654,50.35868 0,0 10.61542,25.17933 -14.36206,47.39637 0,0 16.23537,2.96229 24.97748,-8.88682 0,0 -8.11768,17.03309 -0.62445,48.13696 7.49325,31.10389 34.96847,37.02842 34.96847,37.02842 0,0 20.60641,5.18398 21.23084,26.66048 l 20.60643,-17.77365 17.48422,46.65582 35.59291,-51.83981 9.36654,32.58504 c 0,0 16.23536,-5.184 22.47973,-31.10389 0,0 -0.62443,8.88682 6.8688,14.81137 0,0 -4.37106,-31.84445 12.48873,-48.87754 16.8598,-17.03306 8.11769,-45.91525 8.11769,-45.91525 0,0 4.99549,6.66513 6.24436,14.81139 0,0 3.74662,-26.66048 -6.24436,-57.76436 0,0 4.99549,8.14625 13.7376,5.92455 0,0 -17.3736,-15.43811 -19.98197,-40.73126 -2.50277,-24.26915 -27.47522,-25.17934 -27.47522,-25.17934 z"
         style="fill:#6f0000;fill-opacity:1;stroke:#000000;stroke-width:4.52254868;stroke-linecap:round;stroke-linejoin:round;stroke-miterlimit:4;stroke-opacity:1;stroke-dasharray:none" />
      <path
         sodipodi:nodetypes="cccccc"
         inkscape:connector-curvature="0"
         id="path3827"
         d="m 761.88398,419.94609 -2.86152,31.77363 18.92015,23.60419 20.94353,-24.00257 0.19755,-33.77976 z"
         style="fill:#f0aa39;fill-opacity:1;stroke:#000000;stroke-width:4.52254868;stroke-linecap:round;stroke-linejoin:round;stroke-miterlimit:4;stroke-opacity:1;stroke-dasharray:none" />
      <path
         sodipodi:nodetypes="cscccc"
         inkscape:connector-curvature="0"
         id="path3032"
         d="m 708.94035,344.44464 c 0,0 -5.40917,78.86775 64.91,83.67676 70.31919,4.80901 82.94058,-66.36433 82.94058,-66.36433 L 843.71432,324.2468 732.2877,316.55238 z"
         style="fill:#f0aa39;fill-opacity:1;stroke:#000000;stroke-width:4.52254868;stroke-linecap:round;stroke-linejoin:round;stroke-miterlimit:4;stroke-opacity:1;stroke-dasharray:none" />
      <path
         transform="matrix(0.95383873,0,0,0.96180193,246.33414,226.143)"
         d="m 528.91589,151.69431 c 0,8.59153 -2.53266,15.55634 -5.65686,15.55634 -3.12419,0 -5.65685,-6.96481 -5.65685,-15.55634 0,-8.59154 2.53266,-15.55635 5.65685,-15.55635 3.1242,0 5.65686,6.96481 5.65686,15.55635 z"
         sodipodi:ry="15.556349"
         sodipodi:rx="5.6568542"
         sodipodi:cy="151.69431"
         sodipodi:cx="523.25903"
         id="path3815"
         style="fill:#000000;fill-opacity:1;stroke:none"
         sodipodi:type="arc" />
      <path
         transform="translate(215.93355,236.6762)"
         inkscape:connector-curvature="0"
         id="path3884"
         d="m 554.01816,99.721952 c 0,1.767768 -8.48528,12.374368 2.12132,30.759148 0,0 -4.94974,-1.41422 -14.14213,-8.83884 -9.19239,-7.42462 0,-36.415997 0,-36.415997 z"
         style="fill:#000000;fill-opacity:0.2;stroke:none" />
      <path
         transform="translate(215.93355,236.6762)"
         inkscape:connector-curvature="0"
         id="path3886"
         d="m 600.33366,115.63185 c 0,0 -11.66726,-7.77817 -13.43503,-24.041626 -1.76777,-16.263456 -14.14214,2.12132 -14.14214,2.12132 l 8.13173,16.617006 c 0,0 8.48528,5.65686 19.44544,5.3033 z"
         style="fill:#000000;fill-opacity:0.2;stroke:none" />
      <path
         sodipodi:nodetypes="cscsccccccccsc"
         inkscape:connector-curvature="0"
         id="path3813"
         d="m 841.20751,309.41996 c 0,0 27.82108,8.67816 21.25117,40.51976 -5.68521,27.55381 -0.33723,44.88639 -0.33723,44.88639 0,0 -11.51299,2.32429 -13.48932,-24.82353 -1.59733,-21.94165 -12.81485,-29.24416 -12.81485,-29.24416 12.14038,20.4029 -0.67446,31.62449 -0.67446,31.62449 -10.117,-30.60434 -37.09562,-40.46573 -37.09562,-40.46573 4.04679,16.32231 14.83825,21.08298 14.83825,21.08298 -40.46796,-2.72038 -47.54985,-20.06285 -47.54985,-20.06285 -9.44251,19.72281 2.36063,35.70507 2.36063,35.70507 -21.58291,-8.16116 -24.28076,-29.24415 -24.28076,-29.24415 -10.79146,19.7228 -49.91048,20.4029 -49.91048,20.4029 0,0 12.14039,-8.16116 16.86164,-29.92425 4.72127,-21.76309 20.23398,-22.44319 20.23398,-22.44319"
         style="fill:#6f0000;fill-opacity:1;stroke:#000000;stroke-width:4.52254868;stroke-linecap:round;stroke-linejoin:round;stroke-miterlimit:4;stroke-opacity:1;stroke-dasharray:none" />
      <path
         transform="translate(215.93355,236.6762)"
         inkscape:connector-curvature="0"
         id="path3882"
         d="m 633.21412,77.094535 c 0,0 11.66726,10.960155 8.13173,46.669045 -3.53553,35.70889 4.24264,33.58757 4.24264,33.58757 l -1.76777,-16.26345 1.06066,-16.26346 2.47488,-14.14213 0,-10.25305 -3.53554,-12.020817 -6.0104,-8.485281 z"
         style="fill:#000000;fill-opacity:0.2;stroke:none" />
      <path
         transform="matrix(0.95383873,0,0,0.96180193,246.33414,226.143)"
         d="m 581.24177,150.9872 c 0,9.37258 -2.84924,16.97056 -6.36396,16.97056 -3.51472,0 -6.36396,-7.59798 -6.36396,-16.97056 0,-9.37258 2.84924,-16.97056 6.36396,-16.97056 3.51472,0 6.36396,7.59798 6.36396,16.97056 z"
         sodipodi:ry="16.970562"
         sodipodi:rx="6.3639612"
         sodipodi:cy="150.9872"
         sodipodi:cx="574.87781"
         id="path3817"
         style="fill:#000000;fill-opacity:1;stroke:none"
         sodipodi:type="arc" />
      <path
         inkscape:connector-curvature="0"
         id="path3819"
         d="m 743.41546,358.78099 c 0,0 -12.14038,0.68009 -12.81485,-15.64223 0,0 2.36063,12.58179 16.18718,14.62208 z"
         style="fill:#000000;fill-opacity:1;stroke:none" />
      <path
         style="fill:#000000;fill-opacity:1;stroke:none"
         d="m 793.073,357.08074 c 0,0 -10.62283,0.68009 -11.21299,-15.64223 0,0 2.06555,12.5818 14.16378,14.62209 z"
         id="path3821"
         inkscape:connector-curvature="0" />
      <path
         inkscape:connector-curvature="0"
         id="path3823"
         d="m 754.54415,404.6875 c 0,0 16.18718,6.80097 35.07222,1.02015"
         style="fill:none;stroke:#000000;stroke-width:4.52254868;stroke-linecap:round;stroke-linejoin:round;stroke-miterlimit:4;stroke-opacity:1;stroke-dasharray:none" />
      <path
         inkscape:connector-curvature="0"
         id="path3825"
         d="m 842.22471,358.78099 c 0,0 2.69786,-9.86141 9.10528,-11.2216 6.40743,-1.3602 5.73297,10.5415 5.73297,10.5415 0,0 -2.0234,32.30459 -11.80316,24.82353"
         style="fill:#f1ae41;fill-opacity:1;stroke:#000000;stroke-width:4.52254868;stroke-linecap:round;stroke-linejoin:round;stroke-miterlimit:4;stroke-opacity:1;stroke-dasharray:none" />
      <path
         sodipodi:nodetypes="cccscc"
         inkscape:connector-curvature="0"
         id="path3838"
         d="m 740.32588,688.73201 c 0,0 1.44036,52.98733 11.22749,97.18168 l 20.1783,-1.22293 c 0,0 -1.40828,-22.82084 1.7103,-50.55871 2.97206,-26.43463 -0.60179,-46.42278 -0.60179,-46.42278 z"
         style="fill:#f0aa39;fill-opacity:1;stroke:#000000;stroke-width:4.52254868;stroke-linecap:round;stroke-linejoin:round;stroke-miterlimit:4;stroke-opacity:1;stroke-dasharray:none" />
      <path
         inkscape:connector-curvature="0"
         id="path3846"
         d="m 749.50271,776.98873 -2.45005,-15.15329 c 0,0 14.14626,2.85192 23.75935,-0.34393 l 0.52121,16.74376 c 0,0 -5.09485,3.48819 -21.83051,-1.24654 z"
         style="fill:#ffffff;fill-opacity:1;stroke:#000000;stroke-width:4.52254868;stroke-linecap:round;stroke-linejoin:round;stroke-miterlimit:4;stroke-opacity:1;stroke-dasharray:none" />
      <path
         style="fill:#f0aa39;fill-opacity:1;stroke:#000000;stroke-width:4.52254868;stroke-linecap:round;stroke-linejoin:round;stroke-miterlimit:4;stroke-opacity:1;stroke-dasharray:none"
         d="m 818.16805,690.63706 c 0,0 -4.11711,44.7332 -11.50867,94.27993 l -18.7582,-1.59119 c 0,0 -0.5471,-20.17977 -1.52041,-45.43612 -0.75314,-19.54309 -4.39708,-48.2707 -4.39708,-48.2707 z"
         id="path3840"
         inkscape:connector-curvature="0"
         sodipodi:nodetypes="cccscc" />
      <path
         sodipodi:nodetypes="cscccccccscc"
         inkscape:connector-curvature="0"
         id="path3831"
         d="m 736.66872,592.0974 c 0,0 -10.42823,17.47012 -13.41652,48.6305 -2.9744,31.01551 -24.71174,50.06099 -24.71174,50.06099 0,0 6.41311,12.87285 27.97668,10.60664 0,0 8.72812,14.73037 32.85878,10.76451 0,0 13.86229,12.46414 31.83194,-0.56656 0,0 13.05372,9.42703 28.96968,-1.90403 0,0 18.3816,7.79223 27.50635,-10.22609 0,0 7.1786,1.69966 14.36646,-11.33106 0,0 -23.08763,-10.26683 -25.54488,-43.54988 -2.20782,-29.9046 -13.73625,-52.70772 -13.73625,-52.70772 z"
         style="fill:#2c206e;fill-opacity:1;stroke:#000000;stroke-width:4.52254915;stroke-linecap:round;stroke-linejoin:round;stroke-miterlimit:4;stroke-opacity:1;stroke-dasharray:none" />
      <path
         sodipodi:nodetypes="csccccc"
         inkscape:connector-curvature="0"
         id="path3834"
         d="m 688.33113,514.41748 c 0,0 -3.18197,19.09188 -2.12131,28.28427 1.06066,9.19239 59.04341,42.42641 59.04341,42.42641 l 4.24264,-17.32412 c 0,0 -21.2132,-28.28427 -34.64823,-31.46625 0,0 4.24264,-11.66726 3.53553,-26.51651 z"
         style="fill:#f0aa39;fill-opacity:1;stroke:#000000;stroke-width:4.52254868;stroke-linecap:round;stroke-linejoin:round;stroke-miterlimit:4;stroke-opacity:1;stroke-dasharray:none" />
      <path
         style="fill:#f0aa39;fill-opacity:1;stroke:#000000;stroke-width:4.52254868;stroke-linecap:round;stroke-linejoin:round;stroke-miterlimit:4;stroke-opacity:1;stroke-dasharray:none"
         d="m 874.43732,513.71038 c 0,0 3.18197,19.09188 2.12131,28.28427 -1.06066,9.19239 -59.04341,42.42641 -59.04341,42.42641 l -4.24264,-17.32412 c 0,0 21.2132,-28.28427 34.64823,-31.46625 0,0 -4.24264,-11.66726 -3.53553,-26.51651 z"
         id="path3836"
         inkscape:connector-curvature="0"
         sodipodi:nodetypes="csccccc" />
      <path
         sodipodi:nodetypes="cccccccsccscccc"
         inkscape:connector-curvature="0"
         id="path3829"
         d="m 701.25532,469.63241 c 0,0 3.66373,-12.38489 55.27631,-22.80427 0,0 19.44379,18.47516 44.22508,1.23168 0,0 38.00259,6.60857 53.205,16.3618 0,0 13.15915,12.21207 23.24413,51.03768 0,0 -12.27751,6.42685 -33.62755,9.04822 0,0 -3.83494,-10.55263 -7.09744,-27.17325 0,0 2.35513,12.93969 -9.15003,37.6138 -10.36145,22.2213 0.975,58.94241 0.975,58.94241 0,0 -34.48826,5.41938 -97.01337,0 0,0 9.43859,-41.14814 0.70712,-60.66235 -9.86549,-22.04867 -4.98396,-36.7359 -4.98396,-36.7359 l -7.64746,31.12072 c 0,0 -19.69898,-0.72107 -34.37151,-9.7565 0,0 6.05867,-32.2421 16.25868,-48.22404 z"
         style="fill:#90689b;fill-opacity:1;stroke:#000000;stroke-width:4.52254868;stroke-linecap:round;stroke-linejoin:round;stroke-miterlimit:4;stroke-opacity:1;stroke-dasharray:none" />
      <path
         inkscape:connector-curvature="0"
         id="path3842"
         d="m 748.1,774.18679 c 0,0 -3.91303,5.73918 -4.86859,12.18798 -0.95558,6.44878 -16.4739,20.39265 -16.4739,20.39265 0,0 -6.23114,3.06968 -7.75576,10.48086 0,0 0.22446,11.04308 18.99498,7.85435 0,0 18.19465,-9.24416 26.48431,-20.18863 l 1.21517,4.09552 c 0,0 5.1282,-1.64366 8.07883,-7.95189 2.95062,-6.30824 -1.37618,-23.15396 -1.37618,-23.15396 0,0 -5.80266,4.10233 -24.29886,-3.71688 z"
         style="fill:#613c00;fill-opacity:1;stroke:#000000;stroke-width:4.52254868;stroke-linecap:round;stroke-linejoin:round;stroke-miterlimit:4;stroke-opacity:1;stroke-dasharray:none" />
      <path
         inkscape:connector-curvature="0"
         id="path3850"
         d="m 787.71537,776.39192 -0.48804,-16.27342 c 0,0 13.39889,3.42342 23.22275,1.23154 l -2.51048,16.179 c 0,0 -10.87057,3.65966 -20.22423,-1.13712 z"
         style="fill:#ffffff;fill-opacity:1;stroke:#000000;stroke-width:4.52254868;stroke-linecap:round;stroke-linejoin:round;stroke-miterlimit:4;stroke-opacity:1;stroke-dasharray:none" />
      <path
         sodipodi:nodetypes="cscccccscc"
         style="fill:#613c00;fill-opacity:1;stroke:#000000;stroke-width:4.52254868;stroke-linecap:round;stroke-linejoin:round;stroke-miterlimit:4;stroke-opacity:1;stroke-dasharray:none"
         d="m 809.18252,774.28841 c 0,0 5.72206,6.34723 6.7665,13.26868 1.04445,6.92145 13.38742,23.72421 13.38742,23.72421 0,0 3.66703,4.19068 5.25148,12.19732 0,0 0.11222,11.62442 -16.88788,5.9592 0,0 -16.65375,-11.98395 -24.43306,-24.5479 l -0.97808,4.17239 c 0,0 -2.63284,-2.55087 -5.47052,-9.56855 -2.83766,-7.01769 0.58046,-24.26186 0.58046,-24.26186 0,0 5.34411,5.03976 21.78368,-0.94349 z"
         id="path3844"
         inkscape:connector-curvature="0" />
      <path
         inkscape:connector-curvature="0"
         id="path3848"
         d="m 762.79936,778.98169 c 0,0 0.80767,6.3224 -3.44257,13.29092"
         style="fill:none;stroke:#000000;stroke-width:4.52254868;stroke-linecap:round;stroke-linejoin:round;stroke-miterlimit:4;stroke-opacity:1;stroke-dasharray:none" />
      <path
         inkscape:connector-curvature="0"
         id="path3852"
         d="m 799.21354,777.20081 c 0,0 0.54915,7.74667 3.51993,12.89322"
         style="fill:none;stroke:#000000;stroke-width:4.52254868;stroke-linecap:round;stroke-linejoin:round;stroke-miterlimit:4;stroke-opacity:1;stroke-dasharray:none" />
      <path
         inkscape:connector-curvature="0"
         id="path3854"
         d="m 704.93355,686.1762 c 0,0 7,9 25.5,7.25 0,0 11.5,10 31.25,7.75 0,0 14.5,6.5 27.75,0.5 0,0 16.75,4.5 27.25,-2.5 0,0 15.75,1.5 23.25,-6.25 0,0 10.75,0.75 15.5,-8"
         style="fill:none;stroke:#000000;stroke-width:4.52254868;stroke-linecap:round;stroke-linejoin:round;stroke-miterlimit:4;stroke-opacity:0.49803922;stroke-dasharray:none" />
      <path
         sodipodi:nodetypes="cscscscscsc"
         inkscape:connector-curvature="0"
         id="path3856"
         d="m 771.86592,499.95734 c 0,0 -10.73147,-15.26332 6.82107,-15.44544 15.11701,-0.15685 6.26041,15.44544 6.26041,15.44544 0,0 18.38478,-12.72793 21.2132,1.06066 2.82843,13.78858 -16.97056,8.48528 -16.97056,8.48528 0,0 17.05635,11.87437 6.44975,19.65254 -10.6066,7.77818 -15.64214,-13.99569 -15.64214,-13.99569 0,0 -4.96751,23.62742 -18.04899,13.02082 -13.08147,-10.6066 7.6066,-17.90991 7.6066,-17.90991 0,0 -23.64518,0.77513 -16.57411,-10.18502 7.07106,-10.96016 18.88477,-0.12868 18.88477,-0.12868 z"
         style="fill:#ffffff;fill-opacity:1;stroke:none" />
      <path
         transform="matrix(1.2307692,0,0,1.0526316,84.585326,215.23287)"
         d="m 571.34229,277.20575 c 0,3.70998 -3.08668,6.71751 -6.89429,6.71751 -3.80761,0 -6.89429,-3.00753 -6.89429,-6.71751 0,-3.70998 3.08668,-6.71752 6.89429,-6.71752 3.80761,0 6.89429,3.00754 6.89429,6.71752 z"
         sodipodi:ry="6.7175145"
         sodipodi:rx="6.8942909"
         sodipodi:cy="277.20575"
         sodipodi:cx="564.448"
         id="path3858"
         style="fill:#90689b;fill-opacity:1;stroke:none"
         sodipodi:type="arc" />
      <path
         sodipodi:nodetypes="cc"
         transform="translate(215.93355,236.6762)"
         inkscape:connector-curvature="0"
         id="path3860"
         d="m 510.53109,464.2355 c 0,0 6.36397,-9.19239 14.14214,-45.96194"
         style="fill:none;stroke:#000000;stroke-width:4.52254868;stroke-linecap:round;stroke-linejoin:round;stroke-miterlimit:4;stroke-opacity:0.2;stroke-dasharray:none" />
      <path
         sodipodi:nodetypes="cc"
         inkscape:connector-curvature="0"
         id="path3862"
         d="m 759.30142,712.22542 c 0,0 2.89678,-12.53876 4.02321,-34.1803"
         style="fill:none;stroke:#000000;stroke-width:4.52254868;stroke-linecap:round;stroke-linejoin:round;stroke-miterlimit:4;stroke-opacity:0.2;stroke-dasharray:none" />
      <path
         transform="translate(215.93355,236.6762)"
         inkscape:connector-curvature="0"
         id="path3864"
         d="m 575.58492,475.19565 c 0,0 -3.53553,-10.25305 -4.59619,-40.30508"
         style="fill:none;stroke:#000000;stroke-width:4.52254868;stroke-linecap:round;stroke-linejoin:round;stroke-miterlimit:4;stroke-opacity:0.2;stroke-dasharray:none" />
      <path
         sodipodi:nodetypes="cc"
         transform="translate(215.93355,236.6762)"
         inkscape:connector-curvature="0"
         id="path3866"
         d="m 604.22275,472.72078 c 0,0 -8.48529,-18.03122 -12.02082,-38.53732"
         style="fill:none;stroke:#000000;stroke-width:4.52254868;stroke-linecap:round;stroke-linejoin:round;stroke-miterlimit:4;stroke-opacity:0.2;stroke-dasharray:none" />
      <path
         transform="translate(215.93355,236.6762)"
         inkscape:connector-curvature="0"
         id="path3868"
         d="m 632.50702,462.46773 c 0,0 -15.90991,-6.01041 -26.87006,-51.97235"
         style="fill:none;stroke:#000000;stroke-width:4.52254868;stroke-linecap:round;stroke-linejoin:round;stroke-miterlimit:4;stroke-opacity:0.2;stroke-dasharray:none" />
      <path
         sodipodi:nodetypes="cccccccccccccccccc"
         transform="translate(215.93355,236.6762)"
         inkscape:connector-curvature="0"
         id="path3878"
         d="m 656,71 c 0,0 -2.5,29.5 5.5,39 0,0 -12.5,-13.25 3.5,42.75 0,0 -13.5,-4.25 -1,39.75 0,0 4.5,-14.5 2,-33.5 l 5.5,11 0.5,-14.5 -1,-19 -2.5,-10.5 -3,-11 4.5,4 5,2.5 3.5,-1 L 671,109 664,99 660.5,86.5 659,75 z"
         style="fill:#000000;fill-opacity:0.2;stroke:none" />
      <path
         transform="translate(215.93355,236.6762)"
         inkscape:connector-curvature="0"
         id="path3880"
         d="m 628.26438,145.68389 c 0,0 -4.5962,21.56676 -30.4056,38.18377 0,0 22.98097,-8.48528 34.64824,-36.06245 z"
         style="fill:#000000;fill-opacity:0.2;stroke:none" />
      <path
         transform="translate(215.93355,236.6762)"
         inkscape:connector-curvature="0"
         id="path3888"
         d="m 576.64558,190.93873 c 0,0 3.88909,14.14213 -3.18198,25.80939 l 9.89949,-4.59619 -0.35355,-23.68808 z"
         style="fill:#000000;fill-opacity:0.2;stroke:none" />
      <path
         transform="translate(215.93355,236.6762)"
         inkscape:connector-curvature="0"
         id="path3890"
         d="m 633.92123,226.29407 c 0,0 15.9099,21.92031 20.85965,55.50788 l -2.12132,1.06066 c 0,0 3.88909,6.01041 2.47487,28.99138 l 5.65686,-6.01041 -0.35356,-14.84924 -1.76776,-10.96016 2.47487,-1.41421 -4.94975,-16.61701 -8.48528,-19.79899 -7.77817,-12.37437 z"
         style="fill:#000000;fill-opacity:0.2;stroke:none" />
      <path
         transform="translate(215.93355,236.6762)"
         inkscape:connector-curvature="0"
         id="path3892"
         d="m 608.46539,305.13647 c 0,0 -10.60661,22.27387 -3.88909,52.3259 l 7.42462,0 -2.12132,-12.02081 -2.82843,-15.2028 0,-14.14213 z"
         style="fill:#000000;fill-opacity:0.2;stroke:none" />
      <path
         sodipodi:nodetypes="cccc"
         inkscape:connector-curvature="0"
         id="path3894"
         d="m 767.12329,537.7468 c 0,0 12.21016,-6.46751 23.87742,-0.81066 0,0 -4.30546,3.17498 -10.93719,5.23529 0,0 -7.28337,-1.24265 -12.94023,-4.42463 z"
         style="fill:#000000;fill-opacity:0.2;stroke:none" />
      <path
         sodipodi:nodetypes="cccc"
         transform="translate(215.93355,236.6762)"
         inkscape:connector-curvature="0"
         id="path3896"
         d="m 604.22274,300.18672 c 0,0 4.77298,3.71231 3.35876,12.02082 0,0 3.18199,-13.25826 7.07107,-21.74354 0,0 -4.24264,8.3085 -10.42983,9.72272 z"
         style="fill:#000000;fill-opacity:0.2;stroke:none" />
      <path
         sodipodi:nodetypes="cscccccccccccc"
         transform="translate(215.93355,236.6762)"
         inkscape:connector-curvature="0"
         id="path3898"
         d="m 603.16208,358.16948 c 0,0 9.5323,23.3467 10.60661,50.20459 1.06065,26.51649 27.22361,50.55813 27.22361,50.55813 l 2.47487,-2.47488 2.47488,-5.3033 -9.19239,-6.36396 -9.8995,-13.08147 -4.24264,-12.02082 -2.47487,-11.31371 -0.35356,-9.89949 -2.82842,-13.08148 -3.53554,-12.37437 -5.65685,-15.9099 z"
         style="fill:#000000;fill-opacity:0.2;stroke:none" />
      <path
         transform="translate(215.93355,236.6762)"
         inkscape:connector-curvature="0"
         id="path3900"
         d="m 594.32325,478.02408 c 0,0 -2.82843,40.30509 -7.07107,61.87184 l 5.3033,-1.76776 7.77818,-62.57895 z"
         style="fill:#000000;fill-opacity:0.2;stroke:none" />
      <path
         transform="translate(215.93355,236.6762)"
         inkscape:connector-curvature="0"
         id="path3902"
         d="m 554.72527,480.1454 c 0,0 -3.18198,33.58757 -2.47487,61.87184 l 3.88908,-0.7071 0,-22.27387 1.76777,-20.85965 1.06066,-13.43503 -0.70711,-3.88908 z"
         style="fill:#000000;fill-opacity:0.2;stroke:none" />
      <path
         transform="translate(215.93355,236.6762)"
         inkscape:connector-curvature="0"
         id="path3904"
         d="m 510.5311,259.88164 -12.37437,30.75914 0,7.77818 3.88909,-7.77818 1.76776,-1.06066 z"
         style="fill:#000000;fill-opacity:0.2;stroke:none" />
    </g>
  </g>
</svg>
