<?xml version="1.0" encoding="UTF-8" standalone="no"?>
<!-- Created with Inkscape (http://www.inkscape.org/) -->

<svg
   xmlns:dc="http://purl.org/dc/elements/1.1/"
   xmlns:cc="http://creativecommons.org/ns#"
   xmlns:rdf="http://www.w3.org/1999/02/22-rdf-syntax-ns#"
   xmlns:svg="http://www.w3.org/2000/svg"
   xmlns="http://www.w3.org/2000/svg"
   xmlns:xlink="http://www.w3.org/1999/xlink"
   xmlns:sodipodi="http://sodipodi.sourceforge.net/DTD/sodipodi-0.dtd"
   xmlns:inkscape="http://www.inkscape.org/namespaces/inkscape"
   width="770"
   height="510"
   id="svg3023"
   version="1.1"
   inkscape:version="0.48.4 r9939"
   sodipodi:docname="menuComponent5.svg"
   inkscape:export-filename="/home/victor/Projects/TCC/aventura-do-saber/src/data/img/ui/menuComponent5.png"
   inkscape:export-xdpi="90"
   inkscape:export-ydpi="90">
  <defs
     id="defs3025">
    <inkscape:perspective
       sodipodi:type="inkscape:persp3d"
       inkscape:vp_x="0 : 140 : 1"
       inkscape:vp_y="0 : 1000 : 0"
       inkscape:vp_z="370 : 140 : 1"
       inkscape:persp3d-origin="185 : 93.333333 : 1"
       id="perspective40" />
    <linearGradient
       id="linearGradient4446">
      <stop
         style="stop-color:#e1b237;stop-opacity:1;"
         offset="0"
         id="stop4448" />
      <stop
         style="stop-color:#9f7710;stop-opacity:1;"
         offset="1"
         id="stop4450" />
    </linearGradient>
    <radialGradient
       inkscape:collect="always"
       xlink:href="#linearGradient4446"
       id="radialGradient4452"
       cx="44.5"
       cy="127"
       fx="44.5"
       fy="127"
       r="72.5"
       gradientTransform="matrix(30.538565,0,0,3.4827585,-968.9661,360.55184)"
       gradientUnits="userSpaceOnUse" />
    <clipPath
       clipPathUnits="userSpaceOnUse"
       id="clipPath3795">
      <path
         inkscape:connector-curvature="0"
         id="path3797"
         d="M 25.916667,773.3622 C 17.652834,773.3622 11,780.00264 11,788.25109 l 0,238.22221 c 0,8.2485 6.652834,14.8889 14.916667,14.8889 l 328.166663,0 c 8.26384,0 14.91667,-6.6404 14.91667,-14.8889 l 0,-238.22221 c 0,-8.24845 -6.65283,-14.88889 -14.91667,-14.88889 l -328.166663,0 z m 6.961111,9.92593 314.244442,0 c 6.61107,0 11.93334,5.31235 11.93334,11.91111 l 0,224.32596 c 0,6.5987 -5.32227,11.9111 -11.93334,11.9111 l -314.244442,0 c -6.611067,0 -11.933334,-5.3124 -11.933334,-11.9111 l 0,-224.32596 c 0,-6.59876 5.322267,-11.91111 11.933334,-11.91111 z"
         style="fill:#9f7710;fill-opacity:1;stroke:none" />
    </clipPath>
    <clipPath
       clipPathUnits="userSpaceOnUse"
       id="clipPath3652">
      <path
         id="path3654"
         d="m 46,613.36218 c -8.31,0 -15,6.69 -15,15 l 0,429.00002 c 0,6.5519 4.167473,12.0721 10,14.125 l 0,-438.12502 c 0,-5.54 4.46,-10 10,-10 l 718,0 c 5.54,0 10,4.46 10,10 l 0,438.12502 c 5.83253,-2.0529 10,-7.5731 10,-14.125 l 0,-429.00002 c 0,-8.31 -6.69,-15 -15,-15 l -728,0 z"
         style="fill:#9f7710;fill-opacity:1;stroke:none"
         inkscape:connector-curvature="0" />
    </clipPath>
    <filter
       inkscape:collect="always"
       id="filter3641"
       color-interpolation-filters="sRGB">
      <feGaussianBlur
         inkscape:collect="always"
         stdDeviation="2.51225"
         id="feGaussianBlur3643" />
    </filter>
    <clipPath
       clipPathUnits="userSpaceOnUse"
       id="clipPath3647">
      <path
         sodipodi:nodetypes="ccccccccccccc"
         id="path3649"
         d="m 26,-39 c -8.31,0 -15,6.69 -15,15 l 0,469 c 0,6.5519 4.167473,12.07207 10,14.125 L 21,-19 c 0,-5.54 4.46,-10 10,-10 l 718,0 c 5.54,0 10,4.46 10,10 l 0,478.125 c 5.83253,-2.05293 10,-7.5731 10,-14.125 l 0,-469 c 0,-8.31 -6.69,-15 -15,-15 l -728,0 z"
         style="fill:#9f7710;fill-opacity:1;stroke:none"
         inkscape:connector-curvature="0" />
    </clipPath>
    <clipPath
       clipPathUnits="userSpaceOnUse"
       id="clipPath3873">
      <path
         inkscape:connector-curvature="0"
         sodipodi:nodetypes="ccccccccccccc"
         id="path3875"
         d="m 26,543.36218 c -8.31,0 -15,6.69 -15,15 l 0,499.00002 c 0,6.5519 4.167473,12.0721 10,14.125 l 0,-508.12502 c 0,-5.54 4.46,-10 10,-10 l 718,0 c 5.54,0 10,4.46 10,10 l 0,508.12502 c 5.83253,-2.0529 10,-7.5731 10,-14.125 l 0,-499.00002 c 0,-8.31 -6.69,-15 -15,-15 z"
         style="fill:#9f7710;fill-opacity:1;stroke:none" />
    </clipPath>
    <filter
       inkscape:collect="always"
       id="filter3891">
      <feGaussianBlur
         inkscape:collect="always"
         stdDeviation="2.57225"
         id="feGaussianBlur3893" />
    </filter>
    <clipPath
       clipPathUnits="userSpaceOnUse"
       id="clipPath3897">
      <path
         inkscape:connector-curvature="0"
         sodipodi:nodetypes="ccccccccccccc"
         id="path3899"
         d="m 26,543.36218 c -8.31,0 -15,6.69 -15,15 l 0,499.00002 c 0,6.5519 4.167473,12.0721 10,14.125 l 0,-508.12502 c 0,-5.54 4.46,-10 10,-10 l 718,0 c 5.54,0 10,4.46 10,10 l 0,508.12502 c 5.83253,-2.0529 10,-7.5731 10,-14.125 l 0,-499.00002 c 0,-8.31 -6.69,-15 -15,-15 z"
         style="fill:#9f7710;fill-opacity:1;stroke:none" />
    </clipPath>
  </defs>
  <sodipodi:namedview
     id="base"
     pagecolor="#ffffff"
     bordercolor="#666666"
     borderopacity="1.0"
     inkscape:pageopacity="0.0"
     inkscape:pageshadow="2"
     inkscape:zoom="1"
     inkscape:cx="385"
     inkscape:cy="262.90585"
     inkscape:document-units="px"
     inkscape:current-layer="layer1"
     showgrid="false"
     inkscape:window-width="1364"
     inkscape:window-height="718"
     inkscape:window-x="0"
     inkscape:window-y="0"
     inkscape:window-maximized="1" />
  <metadata
     id="metadata3028">
    <rdf:RDF>
      <cc:Work
         rdf:about="">
        <dc:format>image/svg+xml</dc:format>
        <dc:type
           rdf:resource="http://purl.org/dc/dcmitype/StillImage" />
        <dc:title></dc:title>
      </cc:Work>
    </rdf:RDF>
  </metadata>
  <g
     inkscape:label="Layer 1"
     inkscape:groupmode="layer"
     id="layer1"
     transform="translate(0,-542.36218)">
    <rect
       style="opacity:0.15;fill:#000000;fill-opacity:1;stroke:none"
       id="rect3771"
       width="760"
       height="520"
       x="0"
       y="552.36218"
       rx="15"
       ry="16.333334" />
    <rect
       style="fill:url(#radialGradient4452);fill-opacity:1;stroke:none"
       id="rect4444"
       width="746"
       height="505"
       x="17"
       y="550.36218" />
    <path
       style="fill:#9f7710;fill-opacity:1;stroke:#000000;stroke-width:2;stroke-linecap:round;stroke-linejoin:round;stroke-miterlimit:4;stroke-opacity:1;stroke-dasharray:none"
       d="m 26,543.36218 c -8.31,0 -15,6.69 -15,15 l 0,499.00002 c 0,6.5519 4.167473,12.0721 10,14.125 l 0,-508.12502 c 0,-5.54 4.46,-10 10,-10 l 718,0 c 5.54,0 10,4.46 10,10 l 0,508.12502 c 5.83253,-2.0529 10,-7.5731 10,-14.125 l 0,-499.00002 c 0,-8.31 -6.69,-15 -15,-15 z"
       id="rect3619"
       sodipodi:nodetypes="ccccccccccccc"
       inkscape:connector-curvature="0" />
    <g
       id="g3839"
       clip-path="url(#clipPath3873)">
      <rect
         transform="matrix(0.83769104,0.54614441,-0.54614441,0.83769104,0,0)"
         y="401.93393"
         x="319.3317"
         height="651"
         width="15"
         id="rect3670"
         style="opacity:0.15;fill:#000000;fill-opacity:1;stroke:none" />
      <rect
         style="opacity:0.15;fill:#000000;fill-opacity:1;stroke:none"
         id="rect3672"
         width="15"
         height="651"
         x="347.81317"
         y="383.36502"
         transform="matrix(0.83769104,0.54614441,-0.54614441,0.83769104,0,0)" />
      <rect
         transform="matrix(0.83769104,0.54614441,-0.54614441,0.83769104,0,0)"
         y="364.79611"
         x="376.29465"
         height="651"
         width="15"
         id="rect3674"
         style="opacity:0.15;fill:#000000;fill-opacity:1;stroke:none" />
      <rect
         style="opacity:0.15;fill:#000000;fill-opacity:1;stroke:none"
         id="rect3676"
         width="15"
         height="651"
         x="404.77612"
         y="346.2272"
         transform="matrix(0.83769104,0.54614441,-0.54614441,0.83769104,0,0)" />
      <rect
         transform="matrix(0.83769104,0.54614441,-0.54614441,0.83769104,0,0)"
         y="327.65829"
         x="433.2576"
         height="651"
         width="15"
         id="rect3678"
         style="opacity:0.15;fill:#000000;fill-opacity:1;stroke:none" />
      <rect
         style="opacity:0.15;fill:#000000;fill-opacity:1;stroke:none"
         id="rect3680"
         width="15"
         height="651"
         x="461.73914"
         y="309.08945"
         transform="matrix(0.83769104,0.54614441,-0.54614441,0.83769104,0,0)" />
      <rect
         transform="matrix(0.83769104,0.54614441,-0.54614441,0.83769104,0,0)"
         y="290.52054"
         x="490.22046"
         height="651"
         width="15"
         id="rect3682"
         style="opacity:0.15;fill:#000000;fill-opacity:1;stroke:none" />
      <rect
         style="opacity:0.15;fill:#000000;fill-opacity:1;stroke:none"
         id="rect3684"
         width="15"
         height="651"
         x="518.70203"
         y="271.95163"
         transform="matrix(0.83769104,0.54614441,-0.54614441,0.83769104,0,0)" />
      <rect
         transform="matrix(0.83769104,0.54614441,-0.54614441,0.83769104,0,0)"
         y="253.38271"
         x="547.18353"
         height="651"
         width="15"
         id="rect3686"
         style="opacity:0.15;fill:#000000;fill-opacity:1;stroke:none" />
      <rect
         style="opacity:0.15;fill:#000000;fill-opacity:1;stroke:none"
         id="rect3688"
         width="15"
         height="651"
         x="575.66504"
         y="234.8138"
         transform="matrix(0.83769104,0.54614441,-0.54614441,0.83769104,0,0)" />
      <rect
         style="opacity:0.15;fill:#000000;fill-opacity:1;stroke:none"
         id="rect3690"
         width="15"
         height="651"
         x="604.14679"
         y="216.24492"
         transform="matrix(0.83769104,0.54614441,-0.54614441,0.83769104,0,0)" />
      <rect
         transform="matrix(0.83769104,0.54614441,-0.54614441,0.83769104,0,0)"
         y="197.67601"
         x="632.6283"
         height="651"
         width="15"
         id="rect3692"
         style="opacity:0.15;fill:#000000;fill-opacity:1;stroke:none" />
      <rect
         style="opacity:0.15;fill:#000000;fill-opacity:1;stroke:none"
         id="rect3694"
         width="15"
         height="651"
         x="661.10986"
         y="179.1071"
         transform="matrix(0.83769104,0.54614441,-0.54614441,0.83769104,0,0)" />
      <rect
         transform="matrix(0.83769104,0.54614441,-0.54614441,0.83769104,0,0)"
         y="160.53819"
         x="689.59137"
         height="651"
         width="15"
         id="rect3696"
         style="opacity:0.15;fill:#000000;fill-opacity:1;stroke:none" />
      <rect
         style="opacity:0.15;fill:#000000;fill-opacity:1;stroke:none"
         id="rect3698"
         width="15"
         height="651"
         x="718.07288"
         y="141.96928"
         transform="matrix(0.83769104,0.54614441,-0.54614441,0.83769104,0,0)" />
      <rect
         transform="matrix(0.83769104,0.54614441,-0.54614441,0.83769104,0,0)"
         y="123.40044"
         x="746.5545"
         height="651"
         width="15"
         id="rect3700"
         style="opacity:0.15;fill:#000000;fill-opacity:1;stroke:none" />
      <rect
         style="opacity:0.15;fill:#000000;fill-opacity:1;stroke:none"
         id="rect3702"
         width="15"
         height="651"
         x="775.03583"
         y="104.83152"
         transform="matrix(0.83769104,0.54614441,-0.54614441,0.83769104,0,0)" />
      <rect
         transform="matrix(0.83769104,0.54614441,-0.54614441,0.83769104,0,0)"
         y="86.262604"
         x="803.5174"
         height="651"
         width="15"
         id="rect3704"
         style="opacity:0.15;fill:#000000;fill-opacity:1;stroke:none" />
      <rect
         style="opacity:0.15;fill:#000000;fill-opacity:1;stroke:none"
         id="rect3706"
         width="15"
         height="651"
         x="831.9989"
         y="67.69368"
         transform="matrix(0.83769104,0.54614441,-0.54614441,0.83769104,0,0)" />
      <rect
         transform="matrix(0.83769104,0.54614441,-0.54614441,0.83769104,0,0)"
         y="49.124748"
         x="860.48041"
         height="651"
         width="15"
         id="rect3708"
         style="opacity:0.15;fill:#000000;fill-opacity:1;stroke:none" />
      <rect
         transform="matrix(0.83769104,0.54614441,-0.54614441,0.83769104,0,0)"
         y="30.555868"
         x="888.96216"
         height="651"
         width="15"
         id="rect3710"
         style="opacity:0.15;fill:#000000;fill-opacity:1;stroke:none" />
      <rect
         style="opacity:0.15;fill:#000000;fill-opacity:1;stroke:none"
         id="rect3712"
         width="15"
         height="651"
         x="917.44366"
         y="11.986946"
         transform="matrix(0.83769104,0.54614441,-0.54614441,0.83769104,0,0)" />
      <rect
         transform="matrix(0.83769104,0.54614441,-0.54614441,0.83769104,0,0)"
         y="-6.581974"
         x="945.92523"
         height="651"
         width="15"
         id="rect3714"
         style="opacity:0.15;fill:#000000;fill-opacity:1;stroke:none" />
      <rect
         style="opacity:0.15;fill:#000000;fill-opacity:1;stroke:none"
         id="rect3716"
         width="15"
         height="651"
         x="974.40668"
         y="-25.150887"
         transform="matrix(0.83769104,0.54614441,-0.54614441,0.83769104,0,0)" />
      <rect
         transform="matrix(0.83769104,0.54614441,-0.54614441,0.83769104,0,0)"
         y="-43.71981"
         x="1002.8884"
         height="651"
         width="15"
         id="rect3718"
         style="opacity:0.15;fill:#000000;fill-opacity:1;stroke:none" />
      <rect
         style="opacity:0.15;fill:#000000;fill-opacity:1;stroke:none"
         id="rect3720"
         width="15"
         height="651"
         x="1031.3696"
         y="-62.288677"
         transform="matrix(0.83769104,0.54614441,-0.54614441,0.83769104,0,0)" />
      <rect
         transform="matrix(0.83769104,0.54614441,-0.54614441,0.83769104,0,0)"
         y="-80.85759"
         x="1059.851"
         height="651"
         width="15"
         id="rect3722"
         style="opacity:0.15;fill:#000000;fill-opacity:1;stroke:none" />
      <rect
         style="opacity:0.15;fill:#000000;fill-opacity:1;stroke:none"
         id="rect3724"
         width="15"
         height="651"
         x="1088.3323"
         y="-99.426514"
         transform="matrix(0.83769104,0.54614441,-0.54614441,0.83769104,0,0)" />
      <rect
         transform="matrix(0.83769104,0.54614441,-0.54614441,0.83769104,0,0)"
         y="-117.99543"
         x="1116.8138"
         height="651"
         width="15"
         id="rect3726"
         style="opacity:0.15;fill:#000000;fill-opacity:1;stroke:none" />
      <rect
         style="opacity:0.15;fill:#000000;fill-opacity:1;stroke:none"
         id="rect3728"
         width="15"
         height="651"
         x="1145.2952"
         y="-136.56436"
         transform="matrix(0.83769104,0.54614441,-0.54614441,0.83769104,0,0)" />
      <rect
         transform="matrix(0.83769104,0.54614441,-0.54614441,0.83769104,0,0)"
         y="-155.13329"
         x="1173.7765"
         height="651"
         width="15"
         id="rect3730"
         style="opacity:0.15;fill:#000000;fill-opacity:1;stroke:none" />
      <rect
         style="opacity:0.15;fill:#000000;fill-opacity:1;stroke:none"
         id="rect3837"
         width="15"
         height="651"
         x="1202.2579"
         y="-173.70218"
         transform="matrix(0.83769104,0.54614441,-0.54614441,0.83769104,0,0)" />
    </g>
    <path
       inkscape:connector-curvature="0"
       sodipodi:nodetypes="ccccccccccccc"
       id="path3877"
       d="m 26,543.36218 c -8.31,0 -15,6.69 -15,15 l 0,499.00002 c 0,6.5519 4.167473,12.0721 10,14.125 l 0,-508.12502 c 0,-5.54 4.46,-10 10,-10 l 718,0 c 5.54,0 10,4.46 10,10 l 0,508.12502 c 5.83253,-2.0529 10,-7.5731 10,-14.125 l 0,-499.00002 c 0,-8.31 -6.69,-15 -15,-15 z"
       style="fill:none;stroke:#000000;stroke-width:2;stroke-linecap:round;stroke-linejoin:round;stroke-miterlimit:4;stroke-opacity:1;stroke-dasharray:none;filter:url(#filter3891)"
       clip-path="url(#clipPath3897)" />
  </g>
</svg>
