<?xml version="1.0" encoding="UTF-8" standalone="no"?>
<!-- Created with Inkscape (http://www.inkscape.org/) -->

<svg
   xmlns:dc="http://purl.org/dc/elements/1.1/"
   xmlns:cc="http://creativecommons.org/ns#"
   xmlns:rdf="http://www.w3.org/1999/02/22-rdf-syntax-ns#"
   xmlns:svg="http://www.w3.org/2000/svg"
   xmlns="http://www.w3.org/2000/svg"
   xmlns:xlink="http://www.w3.org/1999/xlink"
   xmlns:sodipodi="http://sodipodi.sourceforge.net/DTD/sodipodi-0.dtd"
   xmlns:inkscape="http://www.inkscape.org/namespaces/inkscape"
   width="770"
   height="480"
   id="svg3023"
   version="1.1"
   inkscape:version="0.47 r22583"
   sodipodi:docname="menuComponent5.svg"
   inkscape:export-filename="/home/victor/Projects/TCC/aventura-do-saber/src/data/img/ui/menuComponent4.png"
   inkscape:export-xdpi="90"
   inkscape:export-ydpi="90">
  <defs
     id="defs3025">
    <inkscape:perspective
       sodipodi:type="inkscape:persp3d"
       inkscape:vp_x="0 : 140 : 1"
       inkscape:vp_y="0 : 1000 : 0"
       inkscape:vp_z="370 : 140 : 1"
       inkscape:persp3d-origin="185 : 93.333333 : 1"
       id="perspective40" />
    <linearGradient
       id="linearGradient4446">
      <stop
         style="stop-color:#e1b237;stop-opacity:1;"
         offset="0"
         id="stop4448" />
      <stop
         style="stop-color:#9f7710;stop-opacity:1;"
         offset="1"
         id="stop4450" />
    </linearGradient>
    <radialGradient
       inkscape:collect="always"
       xlink:href="#linearGradient4446"
       id="radialGradient4452"
       cx="44.5"
       cy="127"
       fx="44.5"
       fy="127"
       r="72.5"
       gradientTransform="matrix(30.538565,0,0,3.275862,-968.9661,401.8277)"
       gradientUnits="userSpaceOnUse" />
    <clipPath
       clipPathUnits="userSpaceOnUse"
       id="clipPath3795">
      <path
         inkscape:connector-curvature="0"
         id="path3797"
         d="M 25.916667,773.3622 C 17.652834,773.3622 11,780.00264 11,788.25109 l 0,238.22221 c 0,8.2485 6.652834,14.8889 14.916667,14.8889 l 328.166663,0 c 8.26384,0 14.91667,-6.6404 14.91667,-14.8889 l 0,-238.22221 c 0,-8.24845 -6.65283,-14.88889 -14.91667,-14.88889 l -328.166663,0 z m 6.961111,9.92593 314.244442,0 c 6.61107,0 11.93334,5.31235 11.93334,11.91111 l 0,224.32596 c 0,6.5987 -5.32227,11.9111 -11.93334,11.9111 l -314.244442,0 c -6.611067,0 -11.933334,-5.3124 -11.933334,-11.9111 l 0,-224.32596 c 0,-6.59876 5.322267,-11.91111 11.933334,-11.91111 z"
         style="fill:#9f7710;fill-opacity:1;stroke:none" />
    </clipPath>
    <filter
       inkscape:collect="always"
       id="filter3648"
       color-interpolation-filters="sRGB">
      <feGaussianBlur
         inkscape:collect="always"
         stdDeviation="2.43225"
         id="feGaussianBlur3650" />
    </filter>
    <clipPath
       clipPathUnits="userSpaceOnUse"
       id="clipPath3652">
      <path
         id="path3654"
         d="m 46,613.36218 c -8.31,0 -15,6.69 -15,15 l 0,429.00002 c 0,6.5519 4.167473,12.0721 10,14.125 l 0,-438.12502 c 0,-5.54 4.46,-10 10,-10 l 718,0 c 5.54,0 10,4.46 10,10 l 0,438.12502 c 5.83253,-2.0529 10,-7.5731 10,-14.125 l 0,-429.00002 c 0,-8.31 -6.69,-15 -15,-15 l -728,0 z"
         style="fill:#9f7710;fill-opacity:1;stroke:none" />
    </clipPath>
    <filter
       inkscape:collect="always"
       id="filter3641">
      <feGaussianBlur
         inkscape:collect="always"
         stdDeviation="2.51225"
         id="feGaussianBlur3643" />
    </filter>
    <clipPath
       clipPathUnits="userSpaceOnUse"
       id="clipPath3647">
      <path
         sodipodi:nodetypes="ccccccccccccc"
         id="path3649"
         d="m 26,-39 c -8.31,0 -15,6.69 -15,15 l 0,469 c 0,6.5519 4.167473,12.07207 10,14.125 L 21,-19 c 0,-5.54 4.46,-10 10,-10 l 718,0 c 5.54,0 10,4.46 10,10 l 0,478.125 c 5.83253,-2.05293 10,-7.5731 10,-14.125 l 0,-469 c 0,-8.31 -6.69,-15 -15,-15 l -728,0 z"
         style="fill:#9f7710;fill-opacity:1;stroke:none" />
    </clipPath>
    <clipPath
       clipPathUnits="userSpaceOnUse"
       id="clipPath3653">
      <path
         sodipodi:nodetypes="ccccccccccccc"
         id="path3655"
         d="m 52,571.36218 c -8.31,0 -15,6.69 -15,15 l 0,469.00002 c 0,6.5519 4.167473,12.0721 10,14.125 l 0,-478.12502 c 0,-5.54 4.46,-10 10,-10 l 718,0 c 5.54,0 10,4.46 10,10 l 0,478.12502 c 5.83253,-2.0529 10,-7.5731 10,-14.125 l 0,-469.00002 c 0,-8.31 -6.69,-15 -15,-15 l -728,0 z"
         style="fill:#9f7710;fill-opacity:1;stroke:none" />
    </clipPath>
  </defs>
  <sodipodi:namedview
     id="base"
     pagecolor="#ffffff"
     bordercolor="#666666"
     borderopacity="1.0"
     inkscape:pageopacity="0.0"
     inkscape:pageshadow="2"
     inkscape:zoom="1"
     inkscape:cx="351.74218"
     inkscape:cy="292.88098"
     inkscape:document-units="px"
     inkscape:current-layer="layer1"
     showgrid="false"
     inkscape:window-width="1920"
     inkscape:window-height="1005"
     inkscape:window-x="0"
     inkscape:window-y="25"
     inkscape:window-maximized="1" />
  <metadata
     id="metadata3028">
    <rdf:RDF>
      <cc:Work
         rdf:about="">
        <dc:format>image/svg+xml</dc:format>
        <dc:type
           rdf:resource="http://purl.org/dc/dcmitype/StillImage" />
        <dc:title />
      </cc:Work>
    </rdf:RDF>
  </metadata>
  <g
     inkscape:label="Layer 1"
     inkscape:groupmode="layer"
     id="layer1"
     transform="translate(0,-572.36218)">
    <rect
       style="opacity:0.15;fill:#000000;fill-opacity:1;stroke:none"
       id="rect3771"
       width="760"
       height="490"
       x="0"
       y="582.36218"
       rx="15"
       ry="16.333334" />
    <rect
       style="fill:url(#radialGradient4452);fill-opacity:1;stroke:none"
       id="rect4444"
       width="746"
       height="475"
       x="17"
       y="580.36218" />
    <path
       style="fill:#9f7710;fill-opacity:1;stroke:#000000;stroke-width:2;stroke-linecap:round;stroke-linejoin:round;stroke-miterlimit:4;stroke-opacity:1;stroke-dasharray:none"
       d="m 26,573.36218 c -8.31,0 -15,6.69 -15,15 l 0,469.00002 c 0,6.5519 4.167473,12.0721 10,14.125 l 0,-478.12502 c 0,-5.54 4.46,-10 10,-10 l 718,0 c 5.54,0 10,4.46 10,10 l 0,478.12502 c 5.83253,-2.0529 10,-7.5731 10,-14.125 l 0,-469.00002 c 0,-8.31 -6.69,-15 -15,-15 l -728,0 z"
       id="rect3619"
       sodipodi:nodetypes="ccccccccccccc" />
    <g
       id="g3734"
       transform="translate(-26,2)"
       clip-path="url(#clipPath3653)">
      <rect
         transform="matrix(0.83769104,0.54614441,-0.54614441,0.83769104,0,0)"
         y="413.41104"
         x="356.65829"
         height="651"
         width="15"
         id="rect3670"
         style="opacity:0.15;fill:#000000;fill-opacity:1;stroke:none" />
      <rect
         style="opacity:0.15;fill:#000000;fill-opacity:1;stroke:none"
         id="rect3672"
         width="15"
         height="651"
         x="385.13977"
         y="394.84213"
         transform="matrix(0.83769104,0.54614441,-0.54614441,0.83769104,0,0)" />
      <rect
         transform="matrix(0.83769104,0.54614441,-0.54614441,0.83769104,0,0)"
         y="376.27322"
         x="413.62125"
         height="651"
         width="15"
         id="rect3674"
         style="opacity:0.15;fill:#000000;fill-opacity:1;stroke:none" />
      <rect
         style="opacity:0.15;fill:#000000;fill-opacity:1;stroke:none"
         id="rect3676"
         width="15"
         height="651"
         x="442.10272"
         y="357.70432"
         transform="matrix(0.83769104,0.54614441,-0.54614441,0.83769104,0,0)" />
      <rect
         transform="matrix(0.83769104,0.54614441,-0.54614441,0.83769104,0,0)"
         y="339.13541"
         x="470.5842"
         height="651"
         width="15"
         id="rect3678"
         style="opacity:0.15;fill:#000000;fill-opacity:1;stroke:none" />
      <rect
         style="opacity:0.15;fill:#000000;fill-opacity:1;stroke:none"
         id="rect3680"
         width="15"
         height="651"
         x="499.06573"
         y="320.56656"
         transform="matrix(0.83769104,0.54614441,-0.54614441,0.83769104,0,0)" />
      <rect
         transform="matrix(0.83769104,0.54614441,-0.54614441,0.83769104,0,0)"
         y="301.99765"
         x="527.54706"
         height="651"
         width="15"
         id="rect3682"
         style="opacity:0.15;fill:#000000;fill-opacity:1;stroke:none" />
      <rect
         style="opacity:0.15;fill:#000000;fill-opacity:1;stroke:none"
         id="rect3684"
         width="15"
         height="651"
         x="556.02863"
         y="283.42874"
         transform="matrix(0.83769104,0.54614441,-0.54614441,0.83769104,0,0)" />
      <rect
         transform="matrix(0.83769104,0.54614441,-0.54614441,0.83769104,0,0)"
         y="264.85983"
         x="584.51013"
         height="651"
         width="15"
         id="rect3686"
         style="opacity:0.15;fill:#000000;fill-opacity:1;stroke:none" />
      <rect
         style="opacity:0.15;fill:#000000;fill-opacity:1;stroke:none"
         id="rect3688"
         width="15"
         height="651"
         x="612.99164"
         y="246.29092"
         transform="matrix(0.83769104,0.54614441,-0.54614441,0.83769104,0,0)" />
      <rect
         style="opacity:0.15;fill:#000000;fill-opacity:1;stroke:none"
         id="rect3690"
         width="15"
         height="651"
         x="641.47339"
         y="227.72205"
         transform="matrix(0.83769104,0.54614441,-0.54614441,0.83769104,0,0)" />
      <rect
         transform="matrix(0.83769104,0.54614441,-0.54614441,0.83769104,0,0)"
         y="209.15314"
         x="669.9549"
         height="651"
         width="15"
         id="rect3692"
         style="opacity:0.15;fill:#000000;fill-opacity:1;stroke:none" />
      <rect
         style="opacity:0.15;fill:#000000;fill-opacity:1;stroke:none"
         id="rect3694"
         width="15"
         height="651"
         x="698.43646"
         y="190.58423"
         transform="matrix(0.83769104,0.54614441,-0.54614441,0.83769104,0,0)" />
      <rect
         transform="matrix(0.83769104,0.54614441,-0.54614441,0.83769104,0,0)"
         y="172.01532"
         x="726.91797"
         height="651"
         width="15"
         id="rect3696"
         style="opacity:0.15;fill:#000000;fill-opacity:1;stroke:none" />
      <rect
         style="opacity:0.15;fill:#000000;fill-opacity:1;stroke:none"
         id="rect3698"
         width="15"
         height="651"
         x="755.39948"
         y="153.44641"
         transform="matrix(0.83769104,0.54614441,-0.54614441,0.83769104,0,0)" />
      <rect
         transform="matrix(0.83769104,0.54614441,-0.54614441,0.83769104,0,0)"
         y="134.87756"
         x="783.8811"
         height="651"
         width="15"
         id="rect3700"
         style="opacity:0.15;fill:#000000;fill-opacity:1;stroke:none" />
      <rect
         style="opacity:0.15;fill:#000000;fill-opacity:1;stroke:none"
         id="rect3702"
         width="15"
         height="651"
         x="812.36243"
         y="116.30864"
         transform="matrix(0.83769104,0.54614441,-0.54614441,0.83769104,0,0)" />
      <rect
         transform="matrix(0.83769104,0.54614441,-0.54614441,0.83769104,0,0)"
         y="97.739723"
         x="840.84399"
         height="651"
         width="15"
         id="rect3704"
         style="opacity:0.15;fill:#000000;fill-opacity:1;stroke:none" />
      <rect
         style="opacity:0.15;fill:#000000;fill-opacity:1;stroke:none"
         id="rect3706"
         width="15"
         height="651"
         x="869.3255"
         y="79.170799"
         transform="matrix(0.83769104,0.54614441,-0.54614441,0.83769104,0,0)" />
      <rect
         transform="matrix(0.83769104,0.54614441,-0.54614441,0.83769104,0,0)"
         y="60.601868"
         x="897.80701"
         height="651"
         width="15"
         id="rect3708"
         style="opacity:0.15;fill:#000000;fill-opacity:1;stroke:none" />
      <rect
         transform="matrix(0.83769104,0.54614441,-0.54614441,0.83769104,0,0)"
         y="42.03299"
         x="926.28876"
         height="651"
         width="15"
         id="rect3710"
         style="opacity:0.15;fill:#000000;fill-opacity:1;stroke:none" />
      <rect
         style="opacity:0.15;fill:#000000;fill-opacity:1;stroke:none"
         id="rect3712"
         width="15"
         height="651"
         x="954.77026"
         y="23.464067"
         transform="matrix(0.83769104,0.54614441,-0.54614441,0.83769104,0,0)" />
      <rect
         transform="matrix(0.83769104,0.54614441,-0.54614441,0.83769104,0,0)"
         y="4.8951468"
         x="983.25183"
         height="651"
         width="15"
         id="rect3714"
         style="opacity:0.15;fill:#000000;fill-opacity:1;stroke:none" />
      <rect
         style="opacity:0.15;fill:#000000;fill-opacity:1;stroke:none"
         id="rect3716"
         width="15"
         height="651"
         x="1011.7333"
         y="-13.673766"
         transform="matrix(0.83769104,0.54614441,-0.54614441,0.83769104,0,0)" />
      <rect
         transform="matrix(0.83769104,0.54614441,-0.54614441,0.83769104,0,0)"
         y="-32.242691"
         x="1040.215"
         height="651"
         width="15"
         id="rect3718"
         style="opacity:0.15;fill:#000000;fill-opacity:1;stroke:none" />
      <rect
         style="opacity:0.15;fill:#000000;fill-opacity:1;stroke:none"
         id="rect3720"
         width="15"
         height="651"
         x="1068.6963"
         y="-50.811558"
         transform="matrix(0.83769104,0.54614441,-0.54614441,0.83769104,0,0)" />
      <rect
         transform="matrix(0.83769104,0.54614441,-0.54614441,0.83769104,0,0)"
         y="-69.38047"
         x="1097.1776"
         height="651"
         width="15"
         id="rect3722"
         style="opacity:0.15;fill:#000000;fill-opacity:1;stroke:none" />
      <rect
         style="opacity:0.15;fill:#000000;fill-opacity:1;stroke:none"
         id="rect3724"
         width="15"
         height="651"
         x="1125.6589"
         y="-87.949394"
         transform="matrix(0.83769104,0.54614441,-0.54614441,0.83769104,0,0)" />
      <rect
         transform="matrix(0.83769104,0.54614441,-0.54614441,0.83769104,0,0)"
         y="-106.51831"
         x="1154.1405"
         height="651"
         width="15"
         id="rect3726"
         style="opacity:0.15;fill:#000000;fill-opacity:1;stroke:none" />
      <rect
         style="opacity:0.15;fill:#000000;fill-opacity:1;stroke:none"
         id="rect3728"
         width="15"
         height="651"
         x="1182.6218"
         y="-125.08724"
         transform="matrix(0.83769104,0.54614441,-0.54614441,0.83769104,0,0)" />
      <rect
         transform="matrix(0.83769104,0.54614441,-0.54614441,0.83769104,0,0)"
         y="-143.65616"
         x="1211.1031"
         height="651"
         width="15"
         id="rect3730"
         style="opacity:0.15;fill:#000000;fill-opacity:1;stroke:none" />
    </g>
    <path
       sodipodi:nodetypes="ccccccccccccc"
       id="path2863"
       transform="translate(0,612.36218)"
       d="m 26,-39 c -8.31,0 -15,6.69 -15,15 l 0,469 c 0,6.5519 4.167473,12.07207 10,14.125 L 21,-19 c 0,-5.54 4.46,-10 10,-10 l 718,0 c 5.54,0 10,4.46 10,10 l 0,478.125 c 5.83253,-2.05293 10,-7.5731 10,-14.125 l 0,-469 c 0,-8.31 -6.69,-15 -15,-15 l -728,0 z"
       style="fill:none;stroke:#000000;stroke-width:2;stroke-linecap:round;stroke-linejoin:round;stroke-miterlimit:4;stroke-opacity:1;stroke-dasharray:none;filter:url(#filter3641)"
       clip-path="url(#clipPath3647)" />
  </g>
</svg>
