<?xml version="1.0" encoding="UTF-8" standalone="no"?>
<!-- Created with Inkscape (http://www.inkscape.org/) -->

<svg
   xmlns:dc="http://purl.org/dc/elements/1.1/"
   xmlns:cc="http://creativecommons.org/ns#"
   xmlns:rdf="http://www.w3.org/1999/02/22-rdf-syntax-ns#"
   xmlns:svg="http://www.w3.org/2000/svg"
   xmlns="http://www.w3.org/2000/svg"
   xmlns:xlink="http://www.w3.org/1999/xlink"
   xmlns:sodipodi="http://sodipodi.sourceforge.net/DTD/sodipodi-0.dtd"
   xmlns:inkscape="http://www.inkscape.org/namespaces/inkscape"
   width="370"
   height="280"
   id="svg3023"
   version="1.1"
   inkscape:version="0.48.4 r9939"
   sodipodi:docname="menuComponent4.svg"
   inkscape:export-filename="/home/victor/Projects/TCC/aventura-do-saber/src/data/img/ui/menuComponent4.png"
   inkscape:export-xdpi="90"
   inkscape:export-ydpi="90">
  <defs
     id="defs3025">
    <linearGradient
       id="linearGradient4446">
      <stop
         style="stop-color:#e1b237;stop-opacity:1;"
         offset="0"
         id="stop4448" />
      <stop
         style="stop-color:#9f7710;stop-opacity:1;"
         offset="1"
         id="stop4450" />
    </linearGradient>
    <filter
       inkscape:collect="always"
       id="filter4432"
       color-interpolation-filters="sRGB">
      <feGaussianBlur
         inkscape:collect="always"
         stdDeviation="1.8717188"
         id="feGaussianBlur4434" />
    </filter>
    <radialGradient
       inkscape:collect="always"
       xlink:href="#linearGradient4446"
       id="radialGradient4452"
       cx="44.5"
       cy="127"
       fx="44.5"
       fy="127"
       r="72.5"
       gradientTransform="matrix(14.245872,0,0,1.7793103,-443.94129,681.38977)"
       gradientUnits="userSpaceOnUse" />
    <filter
       inkscape:collect="always"
       id="filter3789">
      <feGaussianBlur
         inkscape:collect="always"
         stdDeviation="2.3475"
         id="feGaussianBlur3791" />
    </filter>
    <clipPath
       clipPathUnits="userSpaceOnUse"
       id="clipPath3795">
      <path
         inkscape:connector-curvature="0"
         id="path3797"
         d="M 25.916667,773.3622 C 17.652834,773.3622 11,780.00264 11,788.25109 l 0,238.22221 c 0,8.2485 6.652834,14.8889 14.916667,14.8889 l 328.166663,0 c 8.26384,0 14.91667,-6.6404 14.91667,-14.8889 l 0,-238.22221 c 0,-8.24845 -6.65283,-14.88889 -14.91667,-14.88889 l -328.166663,0 z m 6.961111,9.92593 314.244442,0 c 6.61107,0 11.93334,5.31235 11.93334,11.91111 l 0,224.32596 c 0,6.5987 -5.32227,11.9111 -11.93334,11.9111 l -314.244442,0 c -6.611067,0 -11.933334,-5.3124 -11.933334,-11.9111 l 0,-224.32596 c 0,-6.59876 5.322267,-11.91111 11.933334,-11.91111 z"
         style="fill:#9f7710;fill-opacity:1;stroke:none" />
    </clipPath>
    <clipPath
       clipPathUnits="userSpaceOnUse"
       id="clipPath3840">
      <path
         inkscape:connector-curvature="0"
         id="path3842"
         d="M 25.916667,773.3622 C 17.652834,773.3622 11,780.00264 11,788.25109 l 0,238.22221 c 0,8.2485 6.652834,14.8889 14.916667,14.8889 l 328.166663,0 c 8.26384,0 14.91667,-6.6404 14.91667,-14.8889 l 0,-238.22221 c 0,-8.24845 -6.65283,-14.88889 -14.91667,-14.88889 l -328.166663,0 z m 6.961111,9.92593 314.244442,0 c 6.61107,0 11.93334,5.31235 11.93334,11.91111 l 0,224.32596 c 0,6.5987 -5.32227,11.9111 -11.93334,11.9111 l -314.244442,0 c -6.611067,0 -11.933334,-5.3124 -11.933334,-11.9111 l 0,-224.32596 c 0,-6.59876 5.322267,-11.91111 11.933334,-11.91111 z"
         style="fill:#9f7710;fill-opacity:1;stroke:none" />
    </clipPath>
  </defs>
  <sodipodi:namedview
     id="base"
     pagecolor="#ffffff"
     bordercolor="#666666"
     borderopacity="1.0"
     inkscape:pageopacity="0.0"
     inkscape:pageshadow="2"
     inkscape:zoom="1"
     inkscape:cx="122.09916"
     inkscape:cy="167.44463"
     inkscape:document-units="px"
     inkscape:current-layer="layer1"
     showgrid="false"
     inkscape:window-width="1364"
     inkscape:window-height="718"
     inkscape:window-x="0"
     inkscape:window-y="0"
     inkscape:window-maximized="1" />
  <metadata
     id="metadata3028">
    <rdf:RDF>
      <cc:Work
         rdf:about="">
        <dc:format>image/svg+xml</dc:format>
        <dc:type
           rdf:resource="http://purl.org/dc/dcmitype/StillImage" />
        <dc:title></dc:title>
      </cc:Work>
    </rdf:RDF>
  </metadata>
  <g
     inkscape:label="Layer 1"
     inkscape:groupmode="layer"
     id="layer1"
     transform="translate(0,-772.36218)">
    <rect
       style="opacity:0.3;fill:#000000;fill-opacity:1;stroke:none"
       id="rect3007"
       width="360"
       height="270"
       x="0"
       y="782.36218"
       rx="14.999999"
       ry="15" />
    <rect
       style="fill:url(#radialGradient4452);fill-opacity:1;stroke:none"
       id="rect4444"
       width="348"
       height="258"
       x="16"
       y="778.36218" />
    <path
       style="fill:#9f7710;fill-opacity:1;stroke:none"
       d="M 25.916667,773.3622 C 17.652834,773.3622 11,780.00264 11,788.25109 l 0,238.22221 c 0,8.2485 6.652834,14.8889 14.916667,14.8889 l 328.166663,0 c 8.26384,0 14.91667,-6.6404 14.91667,-14.8889 l 0,-238.22221 c 0,-8.24845 -6.65283,-14.88889 -14.91667,-14.88889 l -328.166663,0 z m 6.961111,9.92593 314.244442,0 c 6.61107,0 11.93334,5.31235 11.93334,11.91111 l 0,224.32596 c 0,6.5987 -5.32227,11.9111 -11.93334,11.9111 l -314.244442,0 c -6.611067,0 -11.933334,-5.3124 -11.933334,-11.9111 l 0,-224.32596 c 0,-6.59876 5.322267,-11.91111 11.933334,-11.91111 z"
       id="rect3778"
       inkscape:connector-curvature="0" />
    <rect
       style="fill:none;stroke:#000000;stroke-width:2;stroke-linecap:round;stroke-linejoin:round;stroke-miterlimit:4;stroke-opacity:1;stroke-dasharray:none"
       id="rect3782"
       width="358"
       height="268"
       x="11"
       y="773.36218"
       rx="14.999998"
       ry="14.999999" />
    <rect
       style="fill:none;stroke:#000000;stroke-width:1.99999988;stroke-linecap:round;stroke-linejoin:round;stroke-miterlimit:4;stroke-opacity:1;stroke-dasharray:none"
       id="rect3784"
       width="338"
       height="248"
       x="21"
       y="783.36218"
       rx="12"
       ry="12" />
    <g
       id="g3824"
       clip-path="url(#clipPath3840)">
      <rect
         transform="matrix(0.97446775,0.22452752,-0.22452752,0.97446775,0,0)"
         y="711.80756"
         x="193.34256"
         height="342"
         width="15"
         id="rect4344"
         style="opacity:0.15;fill:#000000;fill-opacity:1;stroke:none" />
      <rect
         style="opacity:0.15;fill:#000000;fill-opacity:1;stroke:none"
         id="rect4346"
         width="15"
         height="342"
         x="222.57658"
         y="705.07166"
         transform="matrix(0.97446775,0.22452752,-0.22452752,0.97446775,0,0)" />
      <rect
         transform="matrix(0.97446775,0.22452752,-0.22452752,0.97446775,0,0)"
         y="698.33575"
         x="251.81061"
         height="342"
         width="15"
         id="rect4348"
         style="opacity:0.15;fill:#000000;fill-opacity:1;stroke:none" />
      <rect
         style="opacity:0.15;fill:#000000;fill-opacity:1;stroke:none"
         id="rect4350"
         width="15"
         height="342"
         x="281.04465"
         y="691.59985"
         transform="matrix(0.97446775,0.22452752,-0.22452752,0.97446775,0,0)" />
      <rect
         transform="matrix(0.97446775,0.22452752,-0.22452752,0.97446775,0,0)"
         y="684.86395"
         x="310.27869"
         height="342"
         width="15"
         id="rect4352"
         style="opacity:0.15;fill:#000000;fill-opacity:1;stroke:none" />
      <rect
         style="opacity:0.15;fill:#000000;fill-opacity:1;stroke:none"
         id="rect4354"
         width="15"
         height="342"
         x="339.51276"
         y="678.12805"
         transform="matrix(0.97446775,0.22452752,-0.22452752,0.97446775,0,0)" />
      <rect
         transform="matrix(0.97446775,0.22452752,-0.22452752,0.97446775,0,0)"
         y="671.39215"
         x="368.74683"
         height="342"
         width="15"
         id="rect4356"
         style="opacity:0.15;fill:#000000;fill-opacity:1;stroke:none" />
      <rect
         style="opacity:0.15;fill:#000000;fill-opacity:1;stroke:none"
         id="rect4358"
         width="15"
         height="342"
         x="397.9809"
         y="664.65625"
         transform="matrix(0.97446775,0.22452752,-0.22452752,0.97446775,0,0)" />
      <rect
         transform="matrix(0.97446775,0.22452752,-0.22452752,0.97446775,0,0)"
         y="657.92035"
         x="427.21497"
         height="342"
         width="15"
         id="rect4360"
         style="opacity:0.15;fill:#000000;fill-opacity:1;stroke:none" />
      <rect
         style="opacity:0.15;fill:#000000;fill-opacity:1;stroke:none"
         id="rect4362"
         width="15"
         height="342"
         x="456.44901"
         y="651.18445"
         transform="matrix(0.97446775,0.22452752,-0.22452752,0.97446775,0,0)" />
      <rect
         transform="matrix(0.97446775,0.22452752,-0.22452752,0.97446775,0,0)"
         y="644.44855"
         x="485.68311"
         height="342"
         width="15"
         id="rect3814"
         style="opacity:0.15;fill:#000000;fill-opacity:1;stroke:none" />
      <rect
         style="opacity:0.15;fill:#000000;fill-opacity:1;stroke:none"
         id="rect3816"
         width="15"
         height="342"
         x="514.91718"
         y="637.71265"
         transform="matrix(0.97446775,0.22452752,-0.22452752,0.97446775,0,0)" />
      <rect
         transform="matrix(0.97446775,0.22452752,-0.22452752,0.97446775,0,0)"
         y="630.97675"
         x="544.15125"
         height="342"
         width="15"
         id="rect3818"
         style="opacity:0.15;fill:#000000;fill-opacity:1;stroke:none" />
      <rect
         style="opacity:0.15;fill:#000000;fill-opacity:1;stroke:none"
         id="rect3820"
         width="15"
         height="342"
         x="573.38531"
         y="624.24084"
         transform="matrix(0.97446775,0.22452752,-0.22452752,0.97446775,0,0)" />
    </g>
    <path
       inkscape:connector-curvature="0"
       id="path3787"
       d="M 25.916667,773.3622 C 17.652834,773.3622 11,780.00264 11,788.25109 l 0,238.22221 c 0,8.2485 6.652834,14.8889 14.916667,14.8889 l 328.166663,0 c 8.26384,0 14.91667,-6.6404 14.91667,-14.8889 l 0,-238.22221 c 0,-8.24845 -6.65283,-14.88889 -14.91667,-14.88889 l -328.166663,0 z m 6.961111,9.92593 314.244442,0 c 6.61107,0 11.93334,5.31235 11.93334,11.91111 l 0,224.32596 c 0,6.5987 -5.32227,11.9111 -11.93334,11.9111 l -314.244442,0 c -6.611067,0 -11.933334,-5.3124 -11.933334,-11.9111 l 0,-224.32596 c 0,-6.59876 5.322267,-11.91111 11.933334,-11.91111 z"
       style="opacity:0.5;fill:none;stroke:#000000;stroke-width:3;stroke-linecap:round;stroke-linejoin:round;stroke-miterlimit:4;stroke-opacity:1;stroke-dasharray:none;filter:url(#filter3789)"
       clip-path="url(#clipPath3795)" />
  </g>
</svg>
