<?xml version="1.0" encoding="UTF-8" standalone="no"?>
<!-- Created with Inkscape (http://www.inkscape.org/) -->

<svg
   xmlns:dc="http://purl.org/dc/elements/1.1/"
   xmlns:cc="http://creativecommons.org/ns#"
   xmlns:rdf="http://www.w3.org/1999/02/22-rdf-syntax-ns#"
   xmlns:svg="http://www.w3.org/2000/svg"
   xmlns="http://www.w3.org/2000/svg"
   xmlns:xlink="http://www.w3.org/1999/xlink"
   xmlns:sodipodi="http://sodipodi.sourceforge.net/DTD/sodipodi-0.dtd"
   xmlns:inkscape="http://www.inkscape.org/namespaces/inkscape"
   width="320"
   height="180"
   id="svg3923"
   version="1.1"
   inkscape:version="0.48.4 r9939"
   sodipodi:docname="all.svg"
   inkscape:export-filename="/home/victor/Projects/TCC/aventura-do-saber/src/data/img/sprite/all.png"
   inkscape:export-xdpi="90"
   inkscape:export-ydpi="90">
  <defs
     id="defs3925">
    <linearGradient
       id="linearGradient3818">
      <stop
         style="stop-color:#ffffff;stop-opacity:1;"
         offset="0"
         id="stop3820" />
      <stop
         style="stop-color:#000000;stop-opacity:1;"
         offset="1"
         id="stop3822" />
    </linearGradient>
    <linearGradient
       id="linearGradient5138">
      <stop
         style="stop-color:#ff004a;stop-opacity:1;"
         offset="0"
         id="stop5140" />
      <stop
         style="stop-color:#ff004a;stop-opacity:0;"
         offset="1"
         id="stop5142" />
    </linearGradient>
    <linearGradient
       id="linearGradient5130">
      <stop
         style="stop-color:#4089d9;stop-opacity:1;"
         offset="0"
         id="stop5132" />
      <stop
         style="stop-color:#4089d9;stop-opacity:0;"
         offset="1"
         id="stop5134" />
    </linearGradient>
    <linearGradient
       id="linearGradient5045">
      <stop
         style="stop-color:#ffffff;stop-opacity:1;"
         offset="0"
         id="stop5047" />
      <stop
         style="stop-color:#000000;stop-opacity:1;"
         offset="1"
         id="stop5049" />
    </linearGradient>
    <linearGradient
       id="linearGradient5029">
      <stop
         style="stop-color:#ffffff;stop-opacity:1;"
         offset="0"
         id="stop5031" />
      <stop
         style="stop-color:#000000;stop-opacity:1;"
         offset="1"
         id="stop5033" />
    </linearGradient>
    <radialGradient
       inkscape:collect="always"
       xlink:href="#linearGradient5029"
       id="radialGradient5041"
       gradientUnits="userSpaceOnUse"
       gradientTransform="matrix(1,0,0,0.94237918,0,-0.89312268)"
       cx="287"
       cy="-15.5"
       fx="287"
       fy="-15.5"
       r="269" />
    <mask
       maskUnits="userSpaceOnUse"
       id="mask5037">
      <path
         sodipodi:type="arc"
         style="fill:url(#radialGradient5041);fill-opacity:1;stroke:none"
         id="path5039"
         sodipodi:cx="287"
         sodipodi:cy="-15.5"
         sodipodi:rx="269"
         sodipodi:ry="253.5"
         d="m 556,-15.5 a 269,253.5 0 1 1 -538,0 269,253.5 0 1 1 538,0 z"
         transform="matrix(1.0315985,0,0,1,2.431227,878.36218)" />
    </mask>
    <linearGradient
       inkscape:collect="always"
       xlink:href="#linearGradient5045"
       id="linearGradient5082"
       gradientUnits="userSpaceOnUse"
       gradientTransform="translate(0,872.36218)"
       x1="253"
       y1="171.5"
       x2="253"
       y2="199.5" />
    <mask
       maskUnits="userSpaceOnUse"
       id="mask5078">
      <rect
         y="853.36218"
         x="169"
         height="219"
         width="163"
         id="rect5080"
         style="fill:url(#linearGradient5082);fill-opacity:1;stroke:none" />
    </mask>
    <radialGradient
       inkscape:collect="always"
       xlink:href="#linearGradient5130"
       id="radialGradient5136"
       cx="177.52414"
       cy="87.372025"
       fx="177.52414"
       fy="87.372025"
       r="448.6777"
       gradientTransform="matrix(-1.3509662,0.00210595,-0.001313,-0.97110058,417.46797,176.55602)"
       gradientUnits="userSpaceOnUse" />
    <radialGradient
       inkscape:collect="always"
       xlink:href="#linearGradient5138"
       id="radialGradient5144"
       cx="194.49142"
       cy="76.977966"
       fx="194.49142"
       fy="76.977966"
       r="448.6777"
       gradientTransform="matrix(1.5293823,0.01429073,-0.0092419,1.1403189,-102.24887,-7.5852895)"
       gradientUnits="userSpaceOnUse" />
    <clipPath
       clipPathUnits="userSpaceOnUse"
       id="clipPath3781">
      <path
         style="fill:#00ad43;fill-opacity:1;stroke:none"
         d="m 128.9705,900.52193 -6.06786,11.76273 -16.18095,-4.3861 -7.483691,12.16147 17.192261,5.18358 -7.48369,15.35136 16.99,5.18358 6.47238,-15.35136 16.58547,5.38294 5.05655,-13.95579 -16.38321,-4.9842 5.66333,-12.75958 z"
         id="path3783"
         inkscape:connector-curvature="0"
         sodipodi:nodetypes="ccccccccccccc" />
    </clipPath>
    <clipPath
       clipPathUnits="userSpaceOnUse"
       id="clipPath3827">
      <path
         inkscape:connector-curvature="0"
         id="path3829"
         d="m 256.82123,63.42647 -1.32124,12.96556 50.73575,1.46385 0.26425,-13.17467 z"
         style="fill:#0000ff;fill-opacity:1;stroke:none" />
    </clipPath>
    <clipPath
       clipPathUnits="userSpaceOnUse"
       id="clipPath3837">
      <path
         transform="matrix(0.87388849,0,0,0.80825906,36.620724,8.1866)"
         d="m 290,52.25 a 8.875,8.25 0 1 1 -17.75,0 8.875,8.25 0 1 1 17.75,0 z"
         sodipodi:ry="8.25"
         sodipodi:rx="8.875"
         sodipodi:cy="52.25"
         sodipodi:cx="281.125"
         id="path3839"
         style="fill:#0000ff;fill-opacity:1;stroke:none"
         sodipodi:type="arc" />
    </clipPath>
    <clipPath
       clipPathUnits="userSpaceOnUse"
       id="clipPath3843">
      <path
         sodipodi:type="arc"
         style="fill:#0000ff;fill-opacity:1;stroke:none"
         id="path3845"
         sodipodi:cx="281.125"
         sodipodi:cy="52.25"
         sodipodi:rx="8.875"
         sodipodi:ry="8.25"
         d="m 290,52.25 a 8.875,8.25 0 1 1 -17.75,0 8.875,8.25 0 1 1 17.75,0 z"
         transform="matrix(0.94009217,0,0,0.87450981,15.541474,918.95434)" />
    </clipPath>
    <radialGradient
       inkscape:collect="always"
       xlink:href="#linearGradient3818"
       id="radialGradient3824"
       cx="164.5"
       cy="94"
       fx="164.5"
       fy="94"
       r="167.5"
       gradientTransform="matrix(1,0,0,0.59701493,0,37.880597)"
       gradientUnits="userSpaceOnUse" />
    <radialGradient
       inkscape:collect="always"
       xlink:href="#linearGradient3818"
       id="radialGradient3830"
       gradientUnits="userSpaceOnUse"
       gradientTransform="matrix(1,0,0,0.59701493,0,37.880597)"
       cx="164.5"
       cy="94"
       fx="164.5"
       fy="94"
       r="167.5" />
    <mask
       maskUnits="userSpaceOnUse"
       id="mask3826">
      <path
         sodipodi:type="arc"
         style="fill:url(#radialGradient3830);fill-opacity:1;stroke:none"
         id="path3828"
         sodipodi:cx="164.5"
         sodipodi:cy="94"
         sodipodi:rx="167.5"
         sodipodi:ry="100"
         d="M 332,94 A 167.5,100 0 1 1 -3,94 167.5,100 0 1 1 332,94 z"
         transform="matrix(1.3253732,0,0,1.305,-58.023878,840.1922)" />
    </mask>
  </defs>
  <sodipodi:namedview
     id="base"
     pagecolor="#ffffff"
     bordercolor="#666666"
     borderopacity="1.0"
     inkscape:pageopacity="0.0"
     inkscape:pageshadow="2"
     inkscape:zoom="1"
     inkscape:cx="122.17366"
     inkscape:cy="78.750768"
     inkscape:document-units="px"
     inkscape:current-layer="layer1"
     showgrid="false"
     inkscape:window-width="1364"
     inkscape:window-height="718"
     inkscape:window-x="0"
     inkscape:window-y="0"
     inkscape:window-maximized="1" />
  <metadata
     id="metadata3928">
    <rdf:RDF>
      <cc:Work
         rdf:about="">
        <dc:format>image/svg+xml</dc:format>
        <dc:type
           rdf:resource="http://purl.org/dc/dcmitype/StillImage" />
        <dc:title />
      </cc:Work>
    </rdf:RDF>
  </metadata>
  <g
     inkscape:label="Layer 1"
     inkscape:groupmode="layer"
     id="layer1"
     transform="translate(0,-872.36218)">
    <g
       id="g3798"
       mask="url(#mask3826)">
      <path
         transform="matrix(0.35362142,0,0,0.32933434,102.57248,925.2079)"
         d="m 204,73 c -0.0717,0.07488 -0.18389,-0.154658 -0.19095,-0.182749 -0.16249,-0.646196 0.7581,-0.940145 1.22474,-0.897423 1.82879,0.167434 2.35719,2.464223 1.94281,3.92895 -1.04619,3.698083 -5.67713,4.536185 -8.82457,3.261596 -6.3559,-2.573884 -7.577,-10.708298 -4.82641,-16.326364 4.84506,-9.896047 17.82207,-11.569836 26.7895,-6.62222 14.40264,7.946393 16.5971,27.25233 8.63988,40.530145 C 216.79778,116.64433 189.5439,119.42695 170.91886,107.56549 144.30243,90.614675 140.86402,53.671736 157.59935,28.591949 180.59487,-5.8694428 229.08183,-10.031817 261.79037,12.616566 305.34061,42.772085 310.29587,104.76515 280.63012,146.33937 242.13857,200.28224 164.57586,206.10021 112.83911,168.2513 47.142628,120.18992 40.391162,24.897382 87.647374,-38.356051 146.56758,-117.22198 261.84259,-124.97879 338.02183,-67.03542 431.52586,4.085523 440.36093,141.68445 370.39718,232.25152 285.68265,341.91326 123.33287,351.90062 16.864839,268.53197 -110.52351,168.78188 -121.7383,-20.828282 -23.530757,-144.75982 92.744375,-291.49147 312.20439,-304.00996 455.20987,-189.48172 622.94794,-55.146007 636.84752,196.83085 504.47048,360.56726 350.49393,551.01999 63.257915,566.37919 -122.91167,414.58029 -337.83131,239.33918 -354.72977,-85.971629 -181.89224,-296.32072 16.279498,-537.50239 382.55216,-556.02091 618.87011,-360.48544 888.15085,-137.6757 908.37131,272.5156 688.4371,536.63374 439.24167,835.89156 -17.893135,857.89696 -311.68387,611.82274 -601.09918,369.41329 -662.33512,-58.855905 -474.58081,-381.80628"
         sodipodi:t0="0"
         sodipodi:argument="-16.515301"
         sodipodi:radius="816.89697"
         sodipodi:revolution="6.2224674"
         sodipodi:expansion="2.5"
         sodipodi:cy="73"
         sodipodi:cx="204"
         id="path5124"
         style="fill:url(#radialGradient5144);fill-opacity:1;stroke:#000000;stroke-width:5.8606019;stroke-linecap:round;stroke-linejoin:round;stroke-miterlimit:4;stroke-opacity:1;stroke-dasharray:none"
         sodipodi:type="spiral" />
      <path
         sodipodi:type="spiral"
         style="fill:url(#radialGradient5136);fill-opacity:1;stroke:#000000;stroke-width:5.8606019;stroke-linecap:round;stroke-linejoin:round;stroke-miterlimit:4;stroke-opacity:1;stroke-dasharray:none"
         id="path5128"
         sodipodi:cx="204"
         sodipodi:cy="73"
         sodipodi:expansion="2.5"
         sodipodi:revolution="5.7889419"
         sodipodi:radius="681.95996"
         sodipodi:argument="-16.515301"
         sodipodi:t0="0"
         d="m 204,73 c -0.0717,0.07488 -0.18389,-0.154658 -0.19095,-0.182749 -0.16249,-0.646196 0.7581,-0.940145 1.22474,-0.897423 1.82879,0.167433 2.35719,2.464224 1.94281,3.928951 -1.04619,3.698085 -5.67713,4.536187 -8.82458,3.261598 -6.35589,-2.573885 -7.57699,-10.708303 -4.82641,-16.326371 4.84507,-9.896052 17.82209,-11.569842 26.78952,-6.622224 14.40264,7.946397 16.59711,27.252343 8.63988,40.530164 C 216.79779,116.64435 189.5439,119.42697 170.91885,107.56551 144.3024,90.614683 140.86399,53.671727 157.59933,28.591929 180.59486,-5.869479 229.08185,-10.031855 261.79039,12.616538 305.34066,42.772071 310.29592,104.76517 280.63016,146.3394 242.13859,200.2823 164.57584,206.10027 112.83907,168.25135 47.142556,120.18994 40.391087,24.89736 87.647321,-38.356102 146.56755,-117.22207 261.84262,-124.97888 338.02189,-67.035484 431.52596,4.0854913 440.36104,141.68448 370.39725,232.25159 285.68269,341.91338 123.33283,351.90075 16.864752,268.53206 -110.52366,168.78193 -121.73845,-20.828326 -23.530862,-144.75992 92.744324,-291.49164 312.20444,-304.01013 455.20999,-189.48185 622.94813,-55.146066 636.84772,196.8309 504.47062,360.56739 350.494,551.02021 63.25785,566.37942 -122.91182,414.58044 -337.83156,239.33925 -354.73003,-85.971702 -181.89242,-296.32089 16.279412,-537.50267 382.55225,-556.0212 618.8703,-360.48563 c 269.28087,222.80984 289.50133,633.00132 69.56703,897.11958 -35.38172,42.48976 -76.0213,80.56429 -120.65479,113.19501"
         transform="matrix(-0.35362142,0,0,-0.32933434,247.12516,972.86)" />
      <text
         transform="matrix(0.54427999,-0.98675511,0.77701758,0.42859177,0,0)"
         id="text5154"
         y="798.79486"
         x="-684.88055"
         style="font-size:52.41603851px;font-style:normal;font-variant:normal;font-weight:normal;font-stretch:normal;text-align:start;text-anchor:start;fill:#000000;fill-opacity:1;stroke:none;font-family:DejaVu Sans Mono;-inkscape-font-specification:DejaVu Sans Mono"
         xml:space="preserve"><tspan
           y="798.79486"
           x="-684.88055"
           id="tspan5156"
           sodipodi:role="line">A</tspan></text>
      <text
         transform="matrix(0.11395408,1.0065642,-0.98023121,0.11701535,0,0)"
         id="text5158"
         y="87.89138"
         x="918.00031"
         style="font-size:90.42377472px;font-style:normal;font-variant:normal;font-weight:normal;font-stretch:normal;text-align:start;text-anchor:start;fill:#000000;fill-opacity:1;stroke:none;font-family:DejaVu Sans Mono;-inkscape-font-specification:DejaVu Sans Mono"
         xml:space="preserve"><tspan
           y="87.89138"
           x="918.00031"
           id="tspan5160"
           sodipodi:role="line">B</tspan></text>
      <g
         transform="matrix(-0.62953821,0.57613431,-0.67356823,-0.53847338,853.13688,1330.1451)"
         id="g3805">
        <path
           style="fill:#00b523;fill-opacity:1;stroke:#000000;stroke-width:2.3455584;stroke-linecap:round;stroke-linejoin:round;stroke-miterlimit:4;stroke-opacity:1;stroke-dasharray:none"
           d="m 128.9705,900.52193 -6.06786,11.76273 -16.18095,-4.38611 -7.483691,12.16147 17.192261,5.18358 -7.48369,15.35137 16.99,5.18358 6.47238,-15.35137 16.58547,5.38295 5.05655,-13.95579 -16.38321,-4.98421 5.66333,-12.75957 z"
           id="path3005"
           inkscape:connector-curvature="0"
           sodipodi:nodetypes="ccccccccccccc" />
        <path
           style="opacity:0.3;fill:#000000;fill-opacity:1;stroke:none"
           d="m 81.746602,927.27469 c 0,0 23.067678,-18.91778 80.217808,1.4504 57.15013,20.36818 -70.30438,25.96719 -70.30438,25.96719 z"
           id="path3777"
           inkscape:connector-curvature="0"
           clip-path="url(#clipPath3781)" />
      </g>
      <g
         id="g4303"
         transform="matrix(0.80236718,-0.26628862,0.28116564,0.75991239,-289.85596,401.34138)">
        <path
           style="fill:#0000ff;fill-opacity:1;stroke:#000000;stroke-width:2.41719437;stroke-linecap:round;stroke-linejoin:round;stroke-miterlimit:4;stroke-opacity:1;stroke-dasharray:none"
           d="m 256.82123,935.78865 -1.32124,12.96556 50.73575,1.46385 0.26425,-13.17467 z"
           id="path3817"
           inkscape:connector-curvature="0" />
        <path
           sodipodi:type="arc"
           style="fill:#0000ff;fill-opacity:1;stroke:#000000;stroke-width:2.8761282;stroke-linecap:round;stroke-linejoin:round;stroke-miterlimit:4;stroke-opacity:1;stroke-dasharray:none"
           id="path3819"
           sodipodi:cx="281.125"
           sodipodi:cy="52.25"
           sodipodi:rx="8.875"
           sodipodi:ry="8.25"
           d="m 290,52.25 c 0,4.556349 -3.97347,8.25 -8.875,8.25 -4.90153,0 -8.875,-3.693651 -8.875,-8.25 0,-4.556349 3.97347,-8.25 8.875,-8.25 4.90153,0 8.875,3.693651 8.875,8.25 z"
           transform="matrix(0.87388849,0,0,0.80825906,36.620724,880.54878)" />
        <path
           transform="matrix(0.94009217,0,0,0.87450981,15.541474,918.95434)"
           d="m 290,52.25 c 0,4.556349 -3.97347,8.25 -8.875,8.25 -4.90153,0 -8.875,-3.693651 -8.875,-8.25 0,-4.556349 3.97347,-8.25 8.875,-8.25 4.90153,0 8.875,3.693651 8.875,8.25 z"
           sodipodi:ry="8.25"
           sodipodi:rx="8.875"
           sodipodi:cy="52.25"
           sodipodi:cx="281.125"
           id="path3821"
           style="fill:#0000ff;fill-opacity:1;stroke:#000000;stroke-width:2.66590095;stroke-linecap:round;stroke-linejoin:round;stroke-miterlimit:4;stroke-opacity:1;stroke-dasharray:none"
           sodipodi:type="arc" />
        <path
           style="opacity:0.3;fill:#000000;fill-opacity:1;stroke:none"
           d="m 248.72481,60.675731 c 0,0 39.24443,5.126524 63.10928,29.344931 23.86485,24.218408 -61.16474,-9.545942 -61.16474,-9.545942 z"
           id="path3823"
           inkscape:connector-curvature="0"
           transform="translate(0,872.36218)"
           clip-path="url(#clipPath3827)" />
        <path
           style="opacity:0.3;fill:#000000;fill-opacity:1;stroke:none"
           d="m 270.99867,40.346411 c 0,0 3.53554,16.617009 24.74874,16.793786 l -14.31891,4.065864 -12.19759,-6.187185 z"
           id="path3831"
           inkscape:connector-curvature="0"
           transform="translate(0,872.36218)"
           clip-path="url(#clipPath3837)" />
        <path
           inkscape:connector-curvature="0"
           id="path3833"
           d="m 267.92276,953.54401 c 0,0 4.45478,17.32112 31.18341,17.50538 l -18.04182,4.23815 -15.36897,-6.44936 z"
           style="opacity:0.3;fill:#000000;fill-opacity:1;stroke:none"
           clip-path="url(#clipPath3843)" />
      </g>
      <text
         xml:space="preserve"
         style="font-size:109.96902466px;font-style:normal;font-variant:normal;font-weight:normal;font-stretch:normal;text-align:start;text-anchor:start;fill:#360099;fill-opacity:1;stroke:#000000;stroke-width:2;stroke-linecap:round;stroke-linejoin:round;stroke-miterlimit:4;stroke-opacity:1;stroke-dasharray:none;font-family:Andika;-inkscape-font-specification:Andika"
         x="-807.63818"
         y="-246.07285"
         id="text4465"
         transform="matrix(-0.62760367,-1.0034266,0.73246448,-0.42228187,0,0)"><tspan
           sodipodi:role="line"
           id="tspan4467"
           x="-807.63818"
           y="-246.07285"
           style="stroke-width:2">?</tspan></text>
    </g>
  </g>
</svg>
