<?xml version="1.0" encoding="UTF-8" standalone="no"?>
<!-- Created with Inkscape (http://www.inkscape.org/) -->

<svg
   xmlns:dc="http://purl.org/dc/elements/1.1/"
   xmlns:cc="http://creativecommons.org/ns#"
   xmlns:rdf="http://www.w3.org/1999/02/22-rdf-syntax-ns#"
   xmlns:svg="http://www.w3.org/2000/svg"
   xmlns="http://www.w3.org/2000/svg"
   xmlns:sodipodi="http://sodipodi.sourceforge.net/DTD/sodipodi-0.dtd"
   xmlns:inkscape="http://www.inkscape.org/namespaces/inkscape"
   width="64"
   height="140"
   id="svg2"
   version="1.1"
   inkscape:version="0.47 r22583"
   sodipodi:docname="npc1.svg"
   inkscape:export-filename="/home/bcc/victords/Projects/aventura-do-saber/src/data/img/npc1.png"
   inkscape:export-xdpi="90"
   inkscape:export-ydpi="90">
  <defs
     id="defs4">
    <inkscape:perspective
       sodipodi:type="inkscape:persp3d"
       inkscape:vp_x="0 : 526.18109 : 1"
       inkscape:vp_y="0 : 1000 : 0"
       inkscape:vp_z="744.09448 : 526.18109 : 1"
       inkscape:persp3d-origin="372.04724 : 350.78739 : 1"
       id="perspective10" />
  </defs>
  <sodipodi:namedview
     id="base"
     pagecolor="#ffffff"
     bordercolor="#666666"
     borderopacity="1.0"
     inkscape:pageopacity="0.0"
     inkscape:pageshadow="2"
     inkscape:zoom="1"
     inkscape:cx="32"
     inkscape:cy="70"
     inkscape:document-units="px"
     inkscape:current-layer="layer1"
     showgrid="false"
     showguides="true"
     inkscape:guide-bbox="true"
     inkscape:window-width="1575"
     inkscape:window-height="875"
     inkscape:window-x="25"
     inkscape:window-y="0"
     inkscape:window-maximized="1" />
  <metadata
     id="metadata7">
    <rdf:RDF>
      <cc:Work
         rdf:about="">
        <dc:format>image/svg+xml</dc:format>
        <dc:type
           rdf:resource="http://purl.org/dc/dcmitype/StillImage" />
        <dc:title></dc:title>
      </cc:Work>
    </rdf:RDF>
  </metadata>
  <g
     inkscape:label="Layer 1"
     inkscape:groupmode="layer"
     id="layer1"
     transform="translate(0,-912.36215)">
    <g
       id="g3677"
       transform="translate(-20.908077,1.0155863)">
      <path
         style="fill:#ffcc95;fill-opacity:1;stroke:#000000;stroke-width:1.99999988;stroke-linecap:round;stroke-linejoin:round;stroke-miterlimit:4;stroke-opacity:1;stroke-dasharray:none"
         d="m 48.047885,1013.0721 c 0,0 0.922462,10.2622 1.844923,15.451 0.922461,5.1887 0.230615,14.8744 0.230615,14.8744 -3.622583,0.7495 -6.322704,2.5367 -9.829979,3.1133 -1.739224,1.2299 1.133859,3.2093 3.08448,2.5367 2.749605,0.8726 5.868404,-0.4771 10.29121,0.4612 4.31443,0.1153 1.768051,-2.9979 1.87375,-5.65 0,0 0,-8.1867 2.306153,-13.8366 1.969063,-4.8242 1.844923,-16.7194 1.844923,-16.7194 l -11.646075,-0.2306 z"
         id="path3613"
         sodipodi:nodetypes="cscccccscc" />
      <path
         sodipodi:nodetypes="cscccccscc"
         id="path2835"
         d="m 52.141308,1013.2451 c 0,0 0.922461,10.2622 1.844922,15.4509 0.922462,5.1888 0.230616,14.8745 0.230616,14.8745 -3.507276,1.2107 -6.322704,3.4591 -9.829979,4.0357 -1.739224,1.2299 2.05632,3.2093 4.006941,2.5367 2.749604,0.8726 4.945942,-1.3995 9.368749,-0.4612 4.31443,0.1153 1.76805,-2.998 1.873749,-5.65 0,0 0,-8.1867 2.306154,-13.8367 1.969063,-4.8241 1.844922,-16.7193 1.844922,-16.7193 l -11.646074,-0.2306 z"
         style="fill:#ffcc95;fill-opacity:1;stroke:#000000;stroke-width:1.99999988;stroke-linecap:round;stroke-linejoin:round;stroke-miterlimit:4;stroke-opacity:1;stroke-dasharray:none" />
      <path
         sodipodi:nodetypes="ccccccccccscccc"
         id="path3628"
         d="m 46.326315,971.50447 c 0,0 -1.66928,1.49898 -1.780565,2.76734 0,0 -4.51863,0.29534 -13.680377,6.43253 0,0 -1.009284,0.0246 -3.457561,-0.78255 0,0 -4.117557,0.92244 -4.785269,3.68978 0,0 0.961344,2.99794 2.460344,4.03569 0,0 1.54995,-1.38366 0.516203,-3.92039 0,0 1.920007,-0.1153 2.253863,-0.92244 0,0 -1.335424,3.34386 -0.333856,3.92039 0,0 2.715094,2.0755 3.386828,-2.30611 0,0 3.134567,-0.76081 4.391283,-0.96682 4.761641,-0.78057 10.553099,-2.73456 10.553099,-2.73456 0,0 1.588861,0.2422 2.367858,-2.98636 l 3.115989,-4.72753 -5.007839,-1.49897 z"
         style="fill:#ffcc95;fill-opacity:1;stroke:#000000;stroke-width:1.99999988;stroke-linecap:round;stroke-linejoin:round;stroke-miterlimit:4;stroke-opacity:1;stroke-dasharray:none" />
      <path
         id="path3624"
         d="m 46.440316,963.21639 c 0,0 -1.059953,6.52267 -2.527579,9.37634 0,0 4.076742,2.6906 8.235018,2.28294 l -0.652278,-10.35475 -5.055161,-1.30453 z"
         style="fill:#3c5483;fill-opacity:1;stroke:#000000;stroke-width:1.99999988;stroke-linecap:round;stroke-linejoin:round;stroke-miterlimit:4;stroke-opacity:1;stroke-dasharray:none" />
      <path
         sodipodi:nodetypes="ccccc"
         id="path3610"
         d="m 52.310825,946.74664 -0.489209,7.82721 9.62111,0 -0.326139,-7.33801 -8.805762,-0.4892 z"
         style="fill:#ffcc95;fill-opacity:1;stroke:#000000;stroke-width:1.99999988;stroke-linecap:round;stroke-linejoin:round;stroke-miterlimit:4;stroke-opacity:1;stroke-dasharray:none" />
      <path
         transform="matrix(0.43984298,0,0,0.47797632,17.283461,901.67661)"
         d="m 122.75,71.75 c 0,16.154329 -13.87917,29.25 -31,29.25 -17.120827,0 -31,-13.095671 -31,-29.25 0,-16.154329 13.879173,-29.25 31,-29.25 17.12083,0 31,13.095671 31,29.25 z"
         sodipodi:ry="29.25"
         sodipodi:rx="31"
         sodipodi:cy="71.75"
         sodipodi:cx="91.75"
         id="path3600"
         style="fill:#ffcc95;fill-opacity:1;stroke:#000000;stroke-width:4.36192274;stroke-linecap:round;stroke-linejoin:round;stroke-miterlimit:4;stroke-opacity:1;stroke-dasharray:none"
         sodipodi:type="arc" />
      <path
         sodipodi:nodetypes="ccccccccccccccccc"
         id="path3602"
         d="m 44.407499,927.40997 c 0,0 -4.035769,2.30611 -6.111307,6.1112 0,0 3.920461,-1.72959 9.109306,-2.19081 0,0 -2.190846,2.53672 -2.075538,5.99589 0,0 2.536769,-3.57447 5.188845,-4.26631 0,0 3.574538,2.0755 4.727615,6.91834 0,0 2.536769,-4.151 2.075538,-6.68773 0,0 2.975816,1.56073 1.845917,5.09323 0,0 4.710232,-0.30974 4.710232,-2.15463 0,0 1.443043,4.8848 0.520581,7.53683 0,0 4.223421,-2.51934 4.569344,-3.44178 0,0 -0.345923,4.38161 -1.499,5.99589 0,0 3.113307,-2.0755 3.574538,-3.57447 0,0 0.691846,1.38366 1.498999,1.96019 0,0 -0.922461,-3.92039 0.230616,-6.1112 0,0 1.153077,-2.88264 0.691846,-5.07344 l -29.057532,-6.1112 z"
         style="fill:#2e2e2e;fill-opacity:1;stroke:#000000;stroke-width:1.99999988;stroke-linecap:round;stroke-linejoin:round;stroke-miterlimit:4;stroke-opacity:1;stroke-dasharray:none" />
      <path
         sodipodi:nodetypes="cscsc"
         id="path3590"
         d="m 38.583664,928.77369 c 0,0 16.41812,7.27801 34.359572,7.44726 17.941449,0.16926 8.462951,-7.10874 8.462951,-7.10874 0,0 -14.37073,-10.36077 -39.098826,-9.98611 -22.342183,0.33851 -3.723697,9.47834 -3.723697,9.64759 z"
         style="fill:#48321e;fill-opacity:1;stroke:#000000;stroke-width:1.99999988;stroke-linecap:round;stroke-linejoin:round;stroke-miterlimit:4;stroke-opacity:1;stroke-dasharray:none" />
      <path
         sodipodi:nodetypes="ccccccc"
         id="path3592"
         d="m 45.184764,924.20378 c 0,0 9.647761,8.4628 27.758472,5.92396 0,0 1.184809,-5.58545 0,-11.50941 0,0 0.338516,-5.7547 -11.848129,-1.18479 l 4.400734,-1.35405 c 0,0 -3.723698,-0.16925 -7.616654,-2.36958 0,0 -5.754805,-6.93949 -12.694423,10.49387 z"
         style="fill:#48321e;fill-opacity:1;stroke:#000000;stroke-width:1.99999988;stroke-linecap:round;stroke-linejoin:round;stroke-miterlimit:4;stroke-opacity:1;stroke-dasharray:none" />
      <path
         style="fill:#6b2c2c;fill-opacity:1;stroke:#000000;stroke-width:1.99999988;stroke-linecap:round;stroke-linejoin:round;stroke-miterlimit:4;stroke-opacity:1;stroke-dasharray:none"
         d="m 45.184764,924.20378 c 0,0 9.647761,8.4628 27.758472,5.92396 0,0 0.338516,-1.8195 0.46546,-3.89289 -12.721894,1.41972 -20.767374,-2.45557 -26.404398,-6.09321 0,0 -1.057868,1.86181 -1.819534,4.06214 z"
         id="path3598"
         sodipodi:nodetypes="ccccc" />
      <path
         transform="matrix(0.60347683,0,0,0.81105768,5.7973325,871.0201)"
         d="m 75.5,83.875 c 0,2.140103 -1.119288,3.875 -2.5,3.875 -1.380712,0 -2.5,-1.734897 -2.5,-3.875 C 70.5,81.734897 71.619288,80 73,80 c 1.380712,0 2.5,1.734897 2.5,3.875 z"
         sodipodi:ry="3.875"
         sodipodi:rx="2.5"
         sodipodi:cy="83.875"
         sodipodi:cx="73"
         id="path3604"
         style="fill:#000000;fill-opacity:1;stroke:none"
         sodipodi:type="arc" />
      <path
         id="path3606"
         d="m 48.043788,945.83909 c 0,0 0.971012,-0.69184 5.534768,-0.11531"
         style="fill:none;stroke:#000000;stroke-width:1.99999988;stroke-linecap:round;stroke-linejoin:round;stroke-miterlimit:4;stroke-opacity:1;stroke-dasharray:none" />
      <path
         id="path3608"
         d="m 60.27439,939.09061 c 0,0 0.550052,-2.64108 3.116961,-2.43792 0,0 2.475232,0.5079 0.09168,4.26636 0,0 -1.741831,4.36793 -3.391987,1.21896"
         style="fill:#ffcc95;fill-opacity:1;stroke:#000000;stroke-width:1.99999988;stroke-linecap:round;stroke-linejoin:round;stroke-miterlimit:4;stroke-opacity:1;stroke-dasharray:none" />
      <path
         sodipodi:nodetypes="ccccccc"
         id="path3612"
         d="m 51.357809,952.56929 c 0,0 3.791582,2.11987 10.464768,0.81533 0,0 6.52152,1.79374 5.459878,11.57774 0,0 -2.881603,13.04534 -3.033265,24.13388 0,0 -9.336654,2.19561 -16.00984,0.89108 0,0 0.691846,-7.73988 -1.128114,-17.36082 0,0 -4.549899,-16.79588 4.246573,-20.05721 z"
         style="fill:#3c5483;fill-opacity:1;stroke:#000000;stroke-width:1.99999988;stroke-linecap:round;stroke-linejoin:round;stroke-miterlimit:4;stroke-opacity:1;stroke-dasharray:none" />
      <path
         sodipodi:nodetypes="cscccccccc"
         id="path3645"
         d="m 64.594536,990.4146 c 0,0 1.844923,9.33975 1.037769,14.2979 -0.807154,4.9581 1.960231,17.4111 1.960231,17.4111 0,0 -5.765384,3.3439 -16.37369,2.1909 0,0 -3.113307,-14.6439 -2.536769,-26.05912 0,0 -0.46123,10.60812 2.421461,25.36722 0,0 -2.997999,0.2306 -6.111306,-0.9224 0,0 1.844923,-13.0296 1.844923,-19.7173 0,0 -0.230616,-7.37955 1.153076,-15.10503 l 16.604305,2.53673 z"
         style="fill:#646464;fill-opacity:1;stroke:#000000;stroke-width:1.99999988;stroke-linecap:round;stroke-linejoin:round;stroke-miterlimit:4;stroke-opacity:1;stroke-dasharray:none" />
      <path
         sodipodi:nodetypes="ccccc"
         id="path3614"
         d="m 49.660943,987.63564 c 0,0 9.498808,0.69303 16.184663,-0.44843 0,0 0.326141,2.9352 -0.815345,4.07666 0,0 -11.08874,1.30454 -15.654691,0.4892 l 0.285373,-4.11743 z"
         style="fill:#48321e;fill-opacity:1;stroke:#000000;stroke-width:1.99999988;stroke-linecap:round;stroke-linejoin:round;stroke-miterlimit:4;stroke-opacity:1;stroke-dasharray:none" />
      <path
         sodipodi:nodetypes="ccccccccccccc"
         id="path3626"
         d="m 56.545267,973.69117 c 0,0 -0.06368,4.5404 0.834021,7.25657 0,0 -2.022366,5.35438 -0.215536,13.05504 0,0 0.267512,2.17622 -0.289214,3.33474 0,0 -3.083563,0.86261 -1.621206,4.60778 0,0 1.568945,2.2009 1.962183,-0.7331 0,0 0.09096,2.1028 -1.037421,2.0706 0,0 2.289164,2.818 5.991494,0.227 0,0 1.860729,-3.0785 0.06276,-6.56607 0,0 -0.398591,-1.19821 0.205257,-5.2758 0,0 1.920911,-7.69985 0.804677,-11.45995 0,0 0.620406,-5.69889 0.193832,-7.54412 l -6.890842,1.02731 z"
         style="fill:#ffcc95;fill-opacity:1;stroke:#000000;stroke-width:1.99999988;stroke-linecap:round;stroke-linejoin:round;stroke-miterlimit:4;stroke-opacity:1;stroke-dasharray:none" />
      <path
         id="path3616"
         d="m 47.255665,986.8203 3.139091,0 c 0,0 0.122302,3.99514 -0.652278,5.95194 l -2.649883,-0.28536 0.04077,-1.50837 1.549163,0.16306 0.326139,-2.85366 -1.834534,0 0.08153,-1.46761 z"
         style="fill:#a37607;fill-opacity:1;stroke:#000000;stroke-width:1.99999988;stroke-linecap:round;stroke-linejoin:round;stroke-miterlimit:4;stroke-opacity:1;stroke-dasharray:none" />
      <path
         sodipodi:nodetypes="cccc"
         id="path3618"
         d="m 47.255666,989.10324 2.201439,0.57073 -2.242208,0.57074 0.04077,-1.14147 z"
         style="fill:#a37607;fill-opacity:1;stroke:#000000;stroke-width:0.99999994;stroke-linecap:round;stroke-linejoin:round;stroke-miterlimit:4;stroke-opacity:1;stroke-dasharray:none" />
      <path
         id="path3620"
         d="m 56.713706,955.79685 c 0,0 7.338137,-0.4892 8.398087,5.29967 0,0 -0.244605,8.47947 0.978417,11.74081 0,0 -5.952041,3.34287 -12.230223,2.36447 0,0 0.326139,-7.66414 -1.059953,-9.29481"
         style="fill:#3c5483;fill-opacity:1;stroke:#000000;stroke-width:1.99999988;stroke-linecap:round;stroke-linejoin:round;stroke-miterlimit:4;stroke-opacity:1;stroke-dasharray:none" />
      <path
         id="path3622"
         d="m 52.39236,957.26445 c 0,0 -1.793767,1.7122 -1.630697,4.6474"
         style="fill:none;stroke:#000000;stroke-width:1.99999988;stroke-linecap:round;stroke-linejoin:round;stroke-miterlimit:4;stroke-opacity:1;stroke-dasharray:none" />
      <path
         id="path3632"
         d="m 27.926696,985.57176 -2.522355,0.12972 -0.590952,5.98148 -0.432404,-5.92383 -0.83598,0.0432 c -0.345923,3.11325 0.922461,8.64792 0.922461,8.64792 l 1.499,40.24175 1.268384,2.9979 0.691846,-3.2285 -1.729615,-39.89584 c 1.383692,-2.65203 1.729615,-8.99384 1.729615,-8.99384 z"
         style="fill:#9d601e;fill-opacity:1;stroke:#000000;stroke-width:1.99999988;stroke-linecap:round;stroke-linejoin:round;stroke-miterlimit:4;stroke-opacity:1;stroke-dasharray:none" />
      <path
         transform="matrix(0.46123069,0,0,0.4612225,16.050006,941.52501)"
         d="m 27,93.875 c 0,2.140103 -1.511039,3.875 -3.375,3.875 -1.863961,0 -3.375,-1.734897 -3.375,-3.875 C 20.25,91.734897 21.761039,90 23.625,90 25.488961,90 27,91.734897 27,93.875 z"
         sodipodi:ry="3.875"
         sodipodi:rx="3.375"
         sodipodi:cy="93.875"
         sodipodi:cx="23.625"
         id="path3630"
         style="fill:#9d601e;fill-opacity:1;stroke:#000000;stroke-width:4.33626318;stroke-linecap:round;stroke-linejoin:round;stroke-miterlimit:4;stroke-opacity:1;stroke-dasharray:none"
         sodipodi:type="arc" />
      <path
         sodipodi:nodetypes="ccccsc"
         id="path3641"
         d="m 21.930697,1031.4634 c 0,0 2.075538,1.7296 4.151077,2.1908 0,0 0.691846,1.3837 1.96023,0.4613 0,0 1.96023,0.8071 4.496999,0.8071 0,0 0.691846,19.6019 -4.95823,14.1826 -5.650076,-5.4194 -5.765383,-17.1806 -5.650076,-17.6418 z"
         style="fill:#b8b8b8;fill-opacity:1;stroke:#000000;stroke-width:1.99999988;stroke-linecap:round;stroke-linejoin:round;stroke-miterlimit:4;stroke-opacity:1;stroke-dasharray:none" />
      <path
         id="path3643"
         d="m 25.505235,1035.0379 c 0,0 0.461231,4.2663 1.153077,5.5347"
         style="fill:#b8b8b8;fill-opacity:1;stroke:#000000;stroke-width:0.99999994;stroke-linecap:round;stroke-linejoin:round;stroke-miterlimit:4;stroke-opacity:1;stroke-dasharray:none" />
    </g>
  </g>
</svg>
