<?xml version="1.0" encoding="UTF-8" standalone="no"?>
<!-- Created with Inkscape (http://www.inkscape.org/) -->

<svg
   xmlns:dc="http://purl.org/dc/elements/1.1/"
   xmlns:cc="http://creativecommons.org/ns#"
   xmlns:rdf="http://www.w3.org/1999/02/22-rdf-syntax-ns#"
   xmlns:svg="http://www.w3.org/2000/svg"
   xmlns="http://www.w3.org/2000/svg"
   xmlns:xlink="http://www.w3.org/1999/xlink"
   xmlns:sodipodi="http://sodipodi.sourceforge.net/DTD/sodipodi-0.dtd"
   xmlns:inkscape="http://www.inkscape.org/namespaces/inkscape"
   width="320"
   height="180"
   id="svg2"
   version="1.1"
   inkscape:version="0.48.4 r9939"
   sodipodi:docname="port.svg"
   inkscape:export-filename="/home/victor/Projects/TCC/aventura-do-saber/src/data/img/sprite/port.png"
   inkscape:export-xdpi="90"
   inkscape:export-ydpi="90">
  <defs
     id="defs4">
    <linearGradient
       id="linearGradient3897">
      <stop
         style="stop-color:#ffffff;stop-opacity:1;"
         offset="0"
         id="stop3899" />
      <stop
         style="stop-color:#000000;stop-opacity:1;"
         offset="1"
         id="stop3901" />
    </linearGradient>
    <clipPath
       clipPathUnits="userSpaceOnUse"
       id="clipPath3766">
      <path
         inkscape:connector-curvature="0"
         id="path3768"
         d="m 163,248 c 0,0 -42,-41 -111,-8 0,0 -13,58 -30,102 0,0 118,-57 141,8 z"
         style="fill:#ffffff;fill-opacity:1;stroke:none" />
    </clipPath>
    <clipPath
       clipPathUnits="userSpaceOnUse"
       id="clipPath3768">
      <path
         inkscape:connector-curvature="0"
         id="path3770"
         d="m 162.98811,247.88225 0,101.11627 c 0,0 26.87006,-59.75052 136.47161,-6.36396 0,0 -22.62741,-73.18555 -24.04163,-103.9447 0,0 -76.72109,-33.58757 -112.42998,9.19239 z"
         style="fill:#ffffff;fill-opacity:1;stroke:none" />
    </clipPath>
    <clipPath
       clipPathUnits="userSpaceOnUse"
       id="clipPath3838">
      <path
         sodipodi:nodetypes="cccccccccccccccc"
         inkscape:connector-curvature="0"
         id="path3840"
         d="m 21.92031,342.28101 2.298097,1.41421 -2.12132,1.76777 1.59099,2.12132 -2.12132,1.06066 1.59099,1.76776 -2.65165,1.06066 1.237437,1.76777 -2.12132,1.41422 1.237436,1.76776 -2.12132,1.41422 1.59099,1.41421 -2.474874,2.82843 c 0,0 105.182134,-36.76956 132.759294,-2.47488 0,0 4.94975,-7.42462 12.02082,-9.89949 0,0 -6.01041,-86.97414 -140.71425,-7.42462 z"
         style="fill:#f7f7f7;fill-opacity:1;stroke:none" />
    </clipPath>
    <filter
       inkscape:collect="always"
       id="filter3891"
       x="-0.062560996"
       width="1.125122"
       y="-0.12779351"
       height="1.255587">
      <feGaussianBlur
         inkscape:collect="always"
         stdDeviation="5.1324254"
         id="feGaussianBlur3893" />
    </filter>
    <radialGradient
       inkscape:collect="always"
       xlink:href="#linearGradient3897"
       id="radialGradient3903"
       cx="269"
       cy="7.5"
       fx="269"
       fy="7.5"
       r="267"
       gradientTransform="matrix(1,0,0,0.63857678,0,2.7106742)"
       gradientUnits="userSpaceOnUse" />
    <radialGradient
       inkscape:collect="always"
       xlink:href="#linearGradient3897"
       id="radialGradient3921"
       gradientUnits="userSpaceOnUse"
       gradientTransform="matrix(1,0,0,0.63857678,0,2.7106742)"
       cx="269"
       cy="7.5"
       fx="269"
       fy="7.5"
       r="267" />
    <mask
       maskUnits="userSpaceOnUse"
       id="mask3917">
      <path
         sodipodi:type="arc"
         style="fill:url(#radialGradient3921);fill-opacity:1;stroke:none"
         id="path3919"
         sodipodi:cx="269"
         sodipodi:cy="7.5"
         sodipodi:rx="267"
         sodipodi:ry="170.5"
         d="m 536,7.5 a 267,170.5 0 1 1 -534,0 267,170.5 0 1 1 534,0 z"
         transform="translate(0,872.36218)" />
    </mask>
  </defs>
  <sodipodi:namedview
     id="base"
     pagecolor="#ffffff"
     bordercolor="#666666"
     borderopacity="1.0"
     inkscape:pageopacity="0.0"
     inkscape:pageshadow="2"
     inkscape:zoom="1"
     inkscape:cx="206.46056"
     inkscape:cy="85.763463"
     inkscape:document-units="px"
     inkscape:current-layer="layer1"
     showgrid="false"
     inkscape:window-width="1364"
     inkscape:window-height="718"
     inkscape:window-x="0"
     inkscape:window-y="0"
     inkscape:window-maximized="1" />
  <metadata
     id="metadata7">
    <rdf:RDF>
      <cc:Work
         rdf:about="">
        <dc:format>image/svg+xml</dc:format>
        <dc:type
           rdf:resource="http://purl.org/dc/dcmitype/StillImage" />
        <dc:title />
      </cc:Work>
    </rdf:RDF>
  </metadata>
  <g
     inkscape:label="Layer 1"
     inkscape:groupmode="layer"
     id="layer1"
     transform="translate(0,-872.36218)">
    <g
       id="g3905"
       mask="url(#mask3917)">
      <text
         id="text2983"
         y="919.36218"
         x="4"
         style="font-size:52px;font-style:normal;font-variant:normal;font-weight:normal;font-stretch:normal;text-align:start;text-anchor:start;fill:#000000;fill-opacity:1;stroke:none;font-family:DejaVu Sans Mono;-inkscape-font-specification:DejaVu Sans Mono"
         xml:space="preserve"><tspan
           y="919.36218"
           x="4"
           id="tspan2985"
           sodipodi:role="line">ABCDEFGHIJKLMNOPQRSTUVWXYZ</tspan></text>
      <text
         xml:space="preserve"
         style="font-size:52px;font-style:normal;font-variant:normal;font-weight:normal;font-stretch:normal;text-align:start;text-anchor:start;fill:#000000;fill-opacity:1;stroke:none;font-family:DejaVu Sans Mono;-inkscape-font-specification:DejaVu Sans Mono"
         x="-184"
         y="965.36218"
         id="text2987"><tspan
           sodipodi:role="line"
           id="tspan2989"
           x="-184"
           y="965.36218">ABCDEFGHIJKLMNOPQRSTUVWXYZ</tspan></text>
      <text
         id="text2991"
         y="1010.3622"
         x="-433"
         style="font-size:52px;font-style:normal;font-variant:normal;font-weight:normal;font-stretch:normal;text-align:start;text-anchor:start;fill:#000000;fill-opacity:1;stroke:none;font-family:DejaVu Sans Mono;-inkscape-font-specification:DejaVu Sans Mono"
         xml:space="preserve"><tspan
           y="1010.3622"
           x="-433"
           id="tspan2993"
           sodipodi:role="line">ABCDEFGHIJKLMNOPQRSTUVWXYZ</tspan></text>
      <text
         xml:space="preserve"
         style="font-size:52px;font-style:normal;font-variant:normal;font-weight:normal;font-stretch:normal;text-align:start;text-anchor:start;fill:#000000;fill-opacity:1;stroke:none;font-family:DejaVu Sans Mono;-inkscape-font-specification:DejaVu Sans Mono"
         x="-621"
         y="1054.3622"
         id="text2995"><tspan
           sodipodi:role="line"
           id="tspan2997"
           x="-621"
           y="1054.3622">ABCDEFGHIJKLMNOPQRSTUVWXYZ</tspan></text>
      <text
         id="text3885"
         y="1054.3622"
         x="193"
         style="font-size:52px;font-style:normal;font-variant:normal;font-weight:normal;font-stretch:normal;text-align:start;text-anchor:start;fill:#000000;fill-opacity:1;stroke:none;font-family:DejaVu Sans Mono;-inkscape-font-specification:DejaVu Sans Mono"
         xml:space="preserve"><tspan
           y="1054.3622"
           x="193"
           id="tspan3887"
           sodipodi:role="line">ABCDEFGHIJKLMNOPQRSTUVWXYZ</tspan></text>
    </g>
    <path
       style="fill:#ffff00;fill-opacity:1;stroke:none;stroke-width:2;stroke-linecap:round;stroke-linejoin:round;stroke-miterlimit:4;stroke-opacity:1;stroke-dasharray:none;filter:url(#filter3891)"
       d="m 136.42411,905.4236 c 0,0 -9.23101,42.97153 -21.19712,69.2319 0,0 -5.47022,14.32384 10.25667,11.25446 0,0 55.7279,-10.23133 72.13857,-4.43358 0,0 18.462,6.13879 30.08623,0.34105 0,0 24.616,-5.4567 73.84802,3.0694 0,0 10.59855,2.3873 9.57288,-10.57237 0,0 -12.64988,-29.32977 -19.48767,-67.86773 0,0 -1.02566,-9.54923 -11.62421,-11.59549 0,0 -42.73613,-13.9828 -65.64269,6.13879 0,0 -32.13756,-21.82681 -67.01024,-4.09253 0,0 -8.20532,2.38731 -10.94044,8.5261 z"
       id="path3889"
       inkscape:connector-curvature="0"
       sodipodi:nodetypes="cccccccccccc" />
    <g
       id="g3846"
       transform="matrix(0.65522058,0,0,0.63375531,108.21144,196.95936)">
      <path
         sodipodi:nodetypes="ccscccccscsccc"
         transform="translate(0,872.36218)"
         inkscape:connector-curvature="0"
         id="path3842"
         d="m 47.729708,243.63961 c 0,0 -9.192388,54.09367 -32.526912,114.5513 0,0 -5.3033011,11.66726 1.414213,10.6066 6.717515,-1.06066 89.449011,-22.92031 130.107651,-7.71751 l -0.70711,2.82843 c 0,0 15.9099,2.82842 31.46625,-1e-5 l -1.06066,-2.47487 c 0,0 43.13352,-11.72792 124.09724,3.82843 0,0 7.77818,1.76776 6.36396,-4.5962 -1.41421,-6.36396 -22.62741,-61.16473 -28.63782,-115.96551 0,0 0.35355,-4.59619 -4.94975,-5.65685 -5.3033,-1.06066 -110.66221,20.85965 -110.66221,20.85965 L 53.386562,240.10408 c 0,0 -3.889087,-0.35356 -5.656854,3.53553 z"
         style="fill:#6c0000;fill-opacity:1;stroke:#000000;stroke-width:3.10366917;stroke-linecap:round;stroke-linejoin:round;stroke-miterlimit:4;stroke-opacity:1;stroke-dasharray:none" />
      <path
         transform="translate(0,872.36218)"
         inkscape:connector-curvature="0"
         id="path3844"
         d="m 150.43697,359.95868 c 0,0 12.55114,3.71231 23.5113,-0.35356 l -2.65165,-12.55114 -19.09189,0 z"
         style="fill:#cccccc;fill-opacity:1;stroke:#000000;stroke-width:3.10366917;stroke-linecap:round;stroke-linejoin:round;stroke-miterlimit:4;stroke-opacity:1;stroke-dasharray:none" />
      <path
         sodipodi:nodetypes="cccccccccccccccc"
         transform="translate(0,872.36218)"
         inkscape:connector-curvature="0"
         id="path3814"
         d="m 162.63456,349.49852 c 0,0 8.13173,3.38909 10.96015,9.75305 0,0 26.51651,-28.99138 126.57212,0.35355 L 299.375,357.25 l 1.375,-1 -1.5,-1.75 1.375,-1.25 -1.625,-1.75 1.5,-1 -1.625,-1.5 1.25,-1.25 -1.625,-1 1.5,-1.25 -1.75,-1 1.25,-1.75 c 0,0 -99.23088,-62.75296 -136.86544,6.74852 z"
         style="fill:#f0f0f0;fill-opacity:1;stroke:#000000;stroke-width:3.10366917;stroke-linecap:round;stroke-linejoin:round;stroke-miterlimit:4;stroke-opacity:1;stroke-dasharray:none" />
      <path
         sodipodi:nodetypes="cccccccccccccccc"
         transform="translate(0,872.36218)"
         inkscape:connector-curvature="0"
         id="path3812"
         d="m 21.92031,342.28101 2.298097,1.41421 -2.12132,1.76777 1.59099,2.12132 -2.12132,1.06066 1.59099,1.76776 -2.65165,1.06066 1.237437,1.76777 -2.12132,1.41422 1.237436,1.76776 -2.12132,1.41422 1.59099,1.41421 -2.474874,2.82843 c 0,0 105.182134,-36.76956 132.759294,-2.47488 0,0 4.94975,-7.42462 12.02082,-9.89949 0,0 -6.01041,-86.97414 -140.71425,-7.42462 z"
         style="fill:#f0f0f0;fill-opacity:1;stroke:#000000;stroke-width:3.10366917;stroke-linecap:round;stroke-linejoin:round;stroke-miterlimit:4;stroke-opacity:1;stroke-dasharray:none" />
      <path
         transform="translate(0,872.36218)"
         inkscape:connector-curvature="0"
         id="path2990"
         d="m 163,248 c 0,0 -42,-41 -111,-8 0,0 -13,58 -30,102 0,0 118,-57 141,8 z"
         style="fill:#ffffff;fill-opacity:1;stroke:#000000;stroke-width:3.10366917;stroke-linecap:round;stroke-linejoin:round;stroke-miterlimit:4;stroke-opacity:1;stroke-dasharray:none" />
      <path
         clip-path="url(#clipPath3766)"
         sodipodi:nodetypes="ccccc"
         transform="translate(0,872.36218)"
         inkscape:connector-curvature="0"
         id="path3762"
         d="m 149,220 c 0,0 -9,88 -161,137 l 187,2 -2,-134 z"
         style="opacity:0.07999998;fill:#000000;fill-opacity:1;stroke:none" />
      <path
         transform="translate(0,872.36218)"
         inkscape:connector-curvature="0"
         id="path2994"
         d="m 162.98811,247.88225 0,101.11627 c 0,0 26.87006,-59.75052 136.47161,-6.36396 0,0 -22.62741,-73.18555 -24.04163,-103.9447 0,0 -76.72109,-33.58757 -112.42998,9.19239 z"
         style="fill:#ffffff;fill-opacity:1;stroke:#000000;stroke-width:3.10366917;stroke-linecap:round;stroke-linejoin:round;stroke-miterlimit:4;stroke-opacity:1;stroke-dasharray:none" />
      <path
         sodipodi:nodetypes="ccccc"
         clip-path="url(#clipPath3768)"
         transform="translate(0,872.36218)"
         inkscape:connector-curvature="0"
         id="path3764"
         d="m 235.46656,222.77996 c 0,0 -3.88909,93.69165 -88.03479,138.59293 l 162.281,-0.70711 -29.69848,-132.93607 z"
         style="opacity:0.07999998;fill:#000000;fill-opacity:1;stroke:none" />
      <path
         inkscape:connector-curvature="0"
         id="path3772"
         d="m 63.286057,1116.3553 c 0,0 49.143923,-21.9203 88.388353,5.6569"
         style="fill:none;stroke:#333333;stroke-width:3.10366917;stroke-linecap:round;stroke-linejoin:round;stroke-miterlimit:4;stroke-opacity:1;stroke-dasharray:none" />
      <path
         sodipodi:nodetypes="cc"
         transform="translate(0,872.36218)"
         inkscape:connector-curvature="0"
         id="path3774"
         d="m 61.164737,252.12489 c 0,0 22.98097,-11.31371 51.972353,-9.19239"
         style="fill:none;stroke:#333333;stroke-width:3.10366917;stroke-linecap:round;stroke-linejoin:round;stroke-miterlimit:4;stroke-opacity:1;stroke-dasharray:none" />
      <path
         sodipodi:nodetypes="cc"
         transform="translate(0,872.36218)"
         inkscape:connector-curvature="0"
         id="path3776"
         d="m 59.220192,260.07985 c 0,0 53.563338,-24.21841 93.161318,3.0052"
         style="fill:none;stroke:#333333;stroke-width:3.10366917;stroke-linecap:round;stroke-linejoin:round;stroke-miterlimit:4;stroke-opacity:1;stroke-dasharray:none" />
      <path
         sodipodi:nodetypes="cc"
         transform="translate(0,872.36218)"
         inkscape:connector-curvature="0"
         id="path3778"
         d="m 57.098872,268.03479 c 0,0 56.391768,-25.10229 94.929088,2.47488"
         style="fill:none;stroke:#333333;stroke-width:3.10366917;stroke-linecap:round;stroke-linejoin:round;stroke-miterlimit:4;stroke-opacity:1;stroke-dasharray:none" />
      <path
         sodipodi:nodetypes="cc"
         transform="translate(0,872.36218)"
         inkscape:connector-curvature="0"
         id="path3780"
         d="m 54.447222,276.3433 c 0,0 60.457628,-26.69328 97.580738,2.2981"
         style="fill:none;stroke:#333333;stroke-width:3.10366917;stroke-linecap:round;stroke-linejoin:round;stroke-miterlimit:4;stroke-opacity:1;stroke-dasharray:none" />
      <path
         sodipodi:nodetypes="cc"
         transform="translate(0,872.36218)"
         inkscape:connector-curvature="0"
         id="path3782"
         d="m 52.502679,284.47502 c 0,0 17.854445,-7.60139 32.350135,-9.0156"
         style="fill:none;stroke:#333333;stroke-width:3.10366917;stroke-linecap:round;stroke-linejoin:round;stroke-miterlimit:4;stroke-opacity:1;stroke-dasharray:none" />
      <path
         sodipodi:nodetypes="cc"
         transform="translate(0,872.36218)"
         inkscape:connector-curvature="0"
         id="path3784"
         d="m 49.674252,294.02097 c 0,0 62.755728,-28.46105 101.646598,0.17678"
         style="fill:none;stroke:#333333;stroke-width:3.10366917;stroke-linecap:round;stroke-linejoin:round;stroke-miterlimit:4;stroke-opacity:1;stroke-dasharray:none" />
      <path
         transform="translate(0,872.36218)"
         inkscape:connector-curvature="0"
         id="path3786"
         d="m 46.5,302.75 c 0,0 69.25,-29.75 104.5,0"
         style="fill:none;stroke:#333333;stroke-width:3.10366917;stroke-linecap:round;stroke-linejoin:round;stroke-miterlimit:4;stroke-opacity:1;stroke-dasharray:none" />
      <path
         transform="translate(0,872.36218)"
         inkscape:connector-curvature="0"
         id="path3788"
         d="m 43.5,312.5 c 0,0 70.25,-32.5 107,-1.25"
         style="fill:none;stroke:#333333;stroke-width:3.10366917;stroke-linecap:round;stroke-linejoin:round;stroke-miterlimit:4;stroke-opacity:1;stroke-dasharray:none" />
      <path
         sodipodi:nodetypes="cc"
         transform="translate(0,872.36218)"
         inkscape:connector-curvature="0"
         id="path3790"
         d="m 41,322 c 0,0 66,-27.5 96,-9.75"
         style="fill:none;stroke:#333333;stroke-width:3.10366917;stroke-linecap:round;stroke-linejoin:round;stroke-miterlimit:4;stroke-opacity:1;stroke-dasharray:none" />
      <path
         sodipodi:nodetypes="cc"
         transform="translate(0,872.36218)"
         inkscape:connector-curvature="0"
         id="path3792"
         d="m 173.94827,248.58936 c 0,0 32.17336,-25.99138 91.21677,-2.65686"
         style="fill:none;stroke:#333333;stroke-width:3.10366917;stroke-linecap:round;stroke-linejoin:round;stroke-miterlimit:4;stroke-opacity:1;stroke-dasharray:none" />
      <path
         sodipodi:nodetypes="cc"
         transform="translate(0,872.36218)"
         inkscape:connector-curvature="0"
         id="path3794"
         d="m 174.30182,255.66043 c 0,0 33.23402,-25.99138 92.27744,-2.30331"
         style="fill:none;stroke:#333333;stroke-width:3.10366917;stroke-linecap:round;stroke-linejoin:round;stroke-miterlimit:4;stroke-opacity:1;stroke-dasharray:none" />
      <path
         sodipodi:nodetypes="cc"
         transform="translate(0,872.36218)"
         inkscape:connector-curvature="0"
         id="path3796"
         d="m 174.30182,262.73149 c 0,0 33.94113,-26.69848 92.98454,-3.0104"
         style="fill:none;stroke:#333333;stroke-width:3.10366917;stroke-linecap:round;stroke-linejoin:round;stroke-miterlimit:4;stroke-opacity:1;stroke-dasharray:none" />
      <path
         sodipodi:nodetypes="cc"
         transform="translate(0,872.36218)"
         inkscape:connector-curvature="0"
         id="path3798"
         d="m 174.30182,269.44901 c 0,0 17.88782,-12.63479 42.86449,-12.35661"
         style="fill:none;stroke:#333333;stroke-width:3.10366917;stroke-linecap:round;stroke-linejoin:round;stroke-miterlimit:4;stroke-opacity:1;stroke-dasharray:none" />
      <path
         sodipodi:nodetypes="cc"
         transform="translate(0,872.36218)"
         inkscape:connector-curvature="0"
         id="path3800"
         d="m 173.94827,277.58074 c 0,0 39.59798,-27.75915 95.10586,-5.13173"
         style="fill:none;stroke:#333333;stroke-width:3.10366917;stroke-linecap:round;stroke-linejoin:round;stroke-miterlimit:4;stroke-opacity:1;stroke-dasharray:none" />
      <path
         sodipodi:nodetypes="cc"
         transform="translate(0,872.36218)"
         inkscape:connector-curvature="0"
         id="path3802"
         d="m 173.59471,285.35891 c 0,0 41.7193,-28.11269 97.22719,-5.48528"
         style="fill:none;stroke:#333333;stroke-width:3.10366917;stroke-linecap:round;stroke-linejoin:round;stroke-miterlimit:4;stroke-opacity:1;stroke-dasharray:none" />
      <path
         sodipodi:nodetypes="cc"
         transform="translate(0,872.36218)"
         inkscape:connector-curvature="0"
         id="path3804"
         d="m 173.24116,292.78353 c 0,0 44.90129,-27.40559 99.70206,-4.42462"
         style="fill:none;stroke:#333333;stroke-width:3.10366917;stroke-linecap:round;stroke-linejoin:round;stroke-miterlimit:4;stroke-opacity:1;stroke-dasharray:none" />
      <path
         sodipodi:nodetypes="cc"
         transform="translate(0,872.36218)"
         inkscape:connector-curvature="0"
         id="path3806"
         d="m 173.24116,300.56171 c 0,0 47.0226,-27.4056 101.46982,-4.42462"
         style="fill:none;stroke:#333333;stroke-width:3.10366917;stroke-linecap:round;stroke-linejoin:round;stroke-miterlimit:4;stroke-opacity:1;stroke-dasharray:none" />
      <path
         sodipodi:nodetypes="cc"
         transform="translate(0,872.36218)"
         inkscape:connector-curvature="0"
         id="path3808"
         d="m 173.24116,309.75409 c 0,0 37.14519,-22.22792 80.34062,-12.74568"
         style="fill:none;stroke:#333333;stroke-width:3.10366917;stroke-linecap:round;stroke-linejoin:round;stroke-miterlimit:4;stroke-opacity:1;stroke-dasharray:none" />
      <path
         sodipodi:nodetypes="cc"
         transform="translate(0,872.36218)"
         inkscape:connector-curvature="0"
         id="path3810"
         d="m 173.24116,317.88582 c 0,0 48.43681,-30.23402 105.35891,-4.77817"
         style="fill:none;stroke:#333333;stroke-width:3.10366917;stroke-linecap:round;stroke-linejoin:round;stroke-miterlimit:4;stroke-opacity:1;stroke-dasharray:none" />
      <path
         transform="translate(0,872.36218)"
         inkscape:connector-curvature="0"
         id="path3816"
         d="m 159.45258,348.29141 c 0,0 -12.72792,-28.99137 -54.09367,-24.39518"
         style="opacity:0.2;fill:none;stroke:#000000;stroke-width:1.55183458;stroke-linecap:round;stroke-linejoin:round;stroke-miterlimit:4;stroke-opacity:1;stroke-dasharray:none" />
      <path
         transform="translate(0,872.36218)"
         inkscape:connector-curvature="0"
         id="path3818"
         d="m 157.68481,351.11984 c 0,0 -7.42462,-13.08147 -24.39518,-18.73833"
         style="opacity:0.2;fill:none;stroke:#000000;stroke-width:1.55183458;stroke-linecap:round;stroke-linejoin:round;stroke-miterlimit:4;stroke-opacity:1;stroke-dasharray:none" />
      <path
         transform="translate(0,872.36218)"
         inkscape:connector-curvature="0"
         id="path3820"
         d="m 38.890873,352.53405 c 0,0 63.286057,-21.2132 97.227187,-5.65685"
         style="opacity:0.2;fill:none;stroke:#000000;stroke-width:1.55183458;stroke-linecap:round;stroke-linejoin:round;stroke-miterlimit:4;stroke-opacity:1;stroke-dasharray:none" />
      <path
         transform="translate(0,872.36218)"
         inkscape:connector-curvature="0"
         id="path3822"
         d="m 152.38151,354.30182 c 0,0 -18.03122,-23.33452 -67.175143,-15.9099"
         style="opacity:0.2;fill:none;stroke:#000000;stroke-width:1.55183458;stroke-linecap:round;stroke-linejoin:round;stroke-miterlimit:4;stroke-opacity:1;stroke-dasharray:none" />
      <path
         transform="translate(0,872.36218)"
         inkscape:connector-curvature="0"
         id="path3824"
         d="m 166.17009,348.64497 c 0,0 28.63783,-47.72971 126.92567,-6.36396"
         style="opacity:0.2;fill:none;stroke:#000000;stroke-width:1.55183458;stroke-linecap:round;stroke-linejoin:round;stroke-miterlimit:4;stroke-opacity:1;stroke-dasharray:none" />
      <path
         sodipodi:nodetypes="cc"
         transform="translate(0,872.36218)"
         inkscape:connector-curvature="0"
         id="path3826"
         d="m 168.64497,351.82695 c 0,0 17.79899,-24.87006 65.1825,-20.42031"
         style="opacity:0.2;fill:none;stroke:#000000;stroke-width:1.55183458;stroke-linecap:round;stroke-linejoin:round;stroke-miterlimit:4;stroke-opacity:1;stroke-dasharray:none" />
      <path
         transform="translate(0,872.36218)"
         inkscape:connector-curvature="0"
         id="path3828"
         d="m 172.88761,356.06959 c 0,0 21.92031,-21.92031 84.14571,-8.83884"
         style="opacity:0.2;fill:none;stroke:#000000;stroke-width:1.55183458;stroke-linecap:round;stroke-linejoin:round;stroke-miterlimit:4;stroke-opacity:1;stroke-dasharray:none" />
      <path
         transform="translate(0,872.36218)"
         inkscape:connector-curvature="0"
         id="path3830"
         d="m 182.43355,346.8772 c 0,0 26.87006,-19.44544 94.39876,1.41421"
         style="opacity:0.2;fill:none;stroke:#000000;stroke-width:1.55183458;stroke-linecap:round;stroke-linejoin:round;stroke-miterlimit:4;stroke-opacity:1;stroke-dasharray:none" />
      <path
         sodipodi:nodetypes="cc"
         transform="translate(0,872.36218)"
         inkscape:connector-curvature="0"
         id="path3832"
         d="m 133.99674,334.50283 c 0,0 -29.69849,-15.20279 -100.055614,9.8995"
         style="opacity:0.2;fill:none;stroke:#000000;stroke-width:1.55183458;stroke-linecap:round;stroke-linejoin:round;stroke-miterlimit:4;stroke-opacity:1;stroke-dasharray:none" />
    </g>
  </g>
</svg>
