<?xml version="1.0" encoding="UTF-8" standalone="no"?>
<!-- Created with Inkscape (http://www.inkscape.org/) -->

<svg
   xmlns:dc="http://purl.org/dc/elements/1.1/"
   xmlns:cc="http://creativecommons.org/ns#"
   xmlns:rdf="http://www.w3.org/1999/02/22-rdf-syntax-ns#"
   xmlns:svg="http://www.w3.org/2000/svg"
   xmlns="http://www.w3.org/2000/svg"
   xmlns:sodipodi="http://sodipodi.sourceforge.net/DTD/sodipodi-0.dtd"
   xmlns:inkscape="http://www.inkscape.org/namespaces/inkscape"
   width="32"
   height="32"
   id="svg2"
   version="1.1"
   inkscape:version="0.48.4 r9939"
   sodipodi:docname="key.svg"
   inkscape:export-filename="/home/victor/Projects/TCC/aventura-do-saber/src/data/img/sprite/key.png"
   inkscape:export-xdpi="90"
   inkscape:export-ydpi="90">
  <defs
     id="defs4" />
  <sodipodi:namedview
     id="base"
     pagecolor="#ffffff"
     bordercolor="#666666"
     borderopacity="1.0"
     inkscape:pageopacity="0.0"
     inkscape:pageshadow="2"
     inkscape:zoom="1"
     inkscape:cx="16"
     inkscape:cy="16"
     inkscape:document-units="px"
     inkscape:current-layer="layer1"
     showgrid="false"
     inkscape:window-width="1364"
     inkscape:window-height="718"
     inkscape:window-x="0"
     inkscape:window-y="0"
     inkscape:window-maximized="1" />
  <metadata
     id="metadata7">
    <rdf:RDF>
      <cc:Work
         rdf:about="">
        <dc:format>image/svg+xml</dc:format>
        <dc:type
           rdf:resource="http://purl.org/dc/dcmitype/StillImage" />
        <dc:title></dc:title>
      </cc:Work>
    </rdf:RDF>
  </metadata>
  <g
     inkscape:label="Layer 1"
     inkscape:groupmode="layer"
     id="layer1"
     transform="translate(0,-1020.3622)">
    <path
       style="fill:#ddae00;fill-opacity:1;stroke:#000000;stroke-width:2;stroke-linecap:round;stroke-linejoin:round;stroke-miterlimit:4;stroke-opacity:1;stroke-dasharray:none;stroke-dashoffset:0"
       d="M 18.6875 1.09375 C 17.095928 1.0858746 15.564328 1.5939063 14.40625 3.0625 C 10.7004 7.7621 16.0625 13.3125 16.0625 13.3125 L 7.125 24.375 L 4.6875 18.09375 L 1.28125 22.25 L 7.4375 30.8125 L 19.34375 15.65625 C 19.34375 15.65625 25.820947 19.6675 29.8125 14.125 C 33.553426 8.9305 25.875 3.59375 25.875 3.59375 C 25.875 3.59375 22.188959 1.1110758 18.6875 1.09375 z M 19.1875 5.09375 C 20.370659 5.0050357 21.934656 5.4819476 23.4375 6.46875 C 25.84205 8.0476338 27.144547 10.342884 26.3125 11.59375 C 25.480453 12.844616 22.84205 12.578884 20.4375 11 C 18.03295 9.4211162 16.761703 7.1258656 17.59375 5.875 C 17.905768 5.4059254 18.477604 5.1469786 19.1875 5.09375 z "
       transform="translate(0,1020.3622)"
       id="path3753" />
  </g>
</svg>
