<?xml version="1.0" encoding="UTF-8" standalone="no"?>
<!-- Created with Inkscape (http://www.inkscape.org/) -->

<svg
   xmlns:dc="http://purl.org/dc/elements/1.1/"
   xmlns:cc="http://creativecommons.org/ns#"
   xmlns:rdf="http://www.w3.org/1999/02/22-rdf-syntax-ns#"
   xmlns:svg="http://www.w3.org/2000/svg"
   xmlns="http://www.w3.org/2000/svg"
   xmlns:xlink="http://www.w3.org/1999/xlink"
   xmlns:sodipodi="http://sodipodi.sourceforge.net/DTD/sodipodi-0.dtd"
   xmlns:inkscape="http://www.inkscape.org/namespaces/inkscape"
   width="32"
   height="32"
   id="svg2"
   version="1.1"
   inkscape:version="0.48.4 r9939"
   inkscape:export-filename="/home/victor/Projects/TCC/aventura-do-saber/src/data/img/icon/potion.png"
   inkscape:export-xdpi="90"
   inkscape:export-ydpi="90"
   sodipodi:docname="potion.svg">
  <defs
     id="defs4">
    <linearGradient
       id="linearGradient4604">
      <stop
         style="stop-color:#808080;stop-opacity:1;"
         offset="0"
         id="stop4606" />
      <stop
         id="stop4614"
         offset="0.5"
         style="stop-color:#ffffff;stop-opacity:1;" />
      <stop
         style="stop-color:#808080;stop-opacity:1;"
         offset="1"
         id="stop4608" />
    </linearGradient>
    <linearGradient
       id="linearGradient3757">
      <stop
         style="stop-color:#eac573;stop-opacity:1;"
         offset="0"
         id="stop3759" />
      <stop
         style="stop-color:#c49742;stop-opacity:1;"
         offset="1"
         id="stop3761" />
    </linearGradient>
    <linearGradient
       inkscape:collect="always"
       xlink:href="#linearGradient4604"
       id="linearGradient4610"
       x1="8.0000001"
       y1="16"
       x2="24"
       y2="16"
       gradientUnits="userSpaceOnUse" />
    <linearGradient
       inkscape:collect="always"
       xlink:href="#linearGradient4604"
       id="linearGradient4612"
       x1="16.842712"
       y1="1.8318634"
       x2="23.097239"
       y2="6.2552071"
       gradientUnits="userSpaceOnUse" />
    <linearGradient
       inkscape:collect="always"
       xlink:href="#linearGradient4604"
       id="linearGradient4677"
       gradientUnits="userSpaceOnUse"
       x1="8.0000001"
       y1="16"
       x2="24"
       y2="16" />
    <linearGradient
       inkscape:collect="always"
       xlink:href="#linearGradient4604"
       id="linearGradient4679"
       gradientUnits="userSpaceOnUse"
       x1="16.842712"
       y1="1.8318634"
       x2="23.097239"
       y2="6.2552071" />
  </defs>
  <sodipodi:namedview
     id="base"
     pagecolor="#ffffff"
     bordercolor="#666666"
     borderopacity="1.0"
     inkscape:pageopacity="0.0"
     inkscape:pageshadow="2"
     inkscape:zoom="1"
     inkscape:cx="16"
     inkscape:cy="16"
     inkscape:document-units="px"
     inkscape:current-layer="layer1"
     showgrid="false"
     inkscape:window-width="1364"
     inkscape:window-height="718"
     inkscape:window-x="0"
     inkscape:window-y="0"
     inkscape:window-maximized="1" />
  <metadata
     id="metadata7">
    <rdf:RDF>
      <cc:Work
         rdf:about="">
        <dc:format>image/svg+xml</dc:format>
        <dc:type
           rdf:resource="http://purl.org/dc/dcmitype/StillImage" />
        <dc:title></dc:title>
      </cc:Work>
    </rdf:RDF>
  </metadata>
  <g
     inkscape:label="Layer 1"
     inkscape:groupmode="layer"
     id="layer1"
     transform="translate(0,-1020.3622)">
    <g
       id="g4663"
       transform="matrix(1.0236,0,0,1.0236,0.57179521,-24.931268)">
      <g
         transform="matrix(0.88461802,0,0,0.88461802,0.92206104,124.07848)"
         id="g4616">
        <path
           inkscape:connector-curvature="0"
           style="fill:url(#linearGradient4677);fill-opacity:1;stroke:#000000;stroke-width:2.20873642;stroke-linecap:round;stroke-linejoin:round;stroke-miterlimit:4;stroke-opacity:1;stroke-dasharray:none;stroke-dashoffset:0"
           d="m 9,4 0,22 c 0,1.10457 3.134007,2 7,2 3.865993,0 7,-0.89543 7,-2 L 23,4 9,4 z"
           transform="translate(0,1020.3622)"
           id="path4590" />
        <path
           sodipodi:type="arc"
           style="fill:url(#linearGradient4679);fill-opacity:1;stroke:#000000;stroke-width:2.43002343;stroke-linecap:round;stroke-linejoin:round;stroke-miterlimit:4;stroke-opacity:1;stroke-dasharray:none;stroke-dashoffset:0"
           id="path4586"
           sodipodi:cx="19.561644"
           sodipodi:cy="4.1369863"
           sodipodi:rx="7.452055"
           sodipodi:ry="2.2739725"
           d="m 27.013699,4.1369863 c 0,1.2558803 -3.336399,2.2739725 -7.452055,2.2739725 -4.115657,0 -7.452055,-1.0180922 -7.452055,-2.2739725 0,-1.2558804 3.336398,-2.2739726 7.452055,-2.2739726 4.115656,0 7.452055,1.0180922 7.452055,2.2739726 z"
           transform="matrix(0.93933822,0,0,0.87951813,-2.3749994,1020.7236)" />
        <path
           style="fill:none;stroke:#000000;stroke-width:1.10436821;stroke-linecap:round;stroke-linejoin:round;stroke-miterlimit:4;stroke-opacity:1;stroke-dasharray:none;stroke-dashoffset:0"
           d="m 9.260274,1030.6088 c 0,0 -0.2191781,1.589 6.630137,1.589 6.849315,0 6.90411,-1.5342 6.90411,-1.5342"
           id="path4596"
           inkscape:connector-curvature="0" />
        <path
           inkscape:connector-curvature="0"
           id="path4598"
           d="m 9.260274,1033.6088 c 0,0 -0.2191781,1.589 6.630137,1.589 6.849315,0 6.90411,-1.5342 6.90411,-1.5342"
           style="fill:none;stroke:#000000;stroke-width:1.10436821;stroke-linecap:round;stroke-linejoin:round;stroke-miterlimit:4;stroke-opacity:1;stroke-dasharray:none;stroke-dashoffset:0" />
        <path
           style="fill:none;stroke:#000000;stroke-width:1.10436821;stroke-linecap:round;stroke-linejoin:round;stroke-miterlimit:4;stroke-opacity:1;stroke-dasharray:none;stroke-dashoffset:0"
           d="m 9.260274,1036.6088 c 0,0 -0.2191781,1.589 6.630137,1.589 6.849315,0 6.90411,-1.5342 6.90411,-1.5342"
           id="path4600"
           inkscape:connector-curvature="0" />
        <path
           inkscape:connector-curvature="0"
           id="path4602"
           d="m 9.260274,1039.6088 c 0,0 -0.2191781,1.589 6.630137,1.589 6.849315,0 6.90411,-1.5342 6.90411,-1.5342"
           style="fill:none;stroke:#000000;stroke-width:1.10436821;stroke-linecap:round;stroke-linejoin:round;stroke-miterlimit:4;stroke-opacity:1;stroke-dasharray:none;stroke-dashoffset:0" />
      </g>
      <path
         sodipodi:nodetypes="cscccsccc"
         transform="translate(0,1020.3622)"
         inkscape:connector-curvature="0"
         id="path4651"
         d="m 8.8767124,9.5890411 c 0,0 0.7671232,2.0821919 6.0821916,2.1369859 5.315069,0.0548 6.301369,-2.0821914 6.301369,-2.0821914 l -3.89041,-3.5616438 0.876712,-3.2876713 c 0,0 -0.164383,-0.9863013 -2.904109,-0.9863013 -2.739726,0 -3.013699,0.9315068 -3.013699,0.9315068 l 0.821918,3.2876713 z"
         style="fill:#e7e7c2;fill-opacity:1;stroke:#000000;stroke-width:1.95388818;stroke-linecap:round;stroke-linejoin:round;stroke-miterlimit:4;stroke-opacity:1;stroke-dasharray:none;stroke-dashoffset:0" />
      <path
         inkscape:connector-curvature="0"
         id="path4653"
         d="m 13.150685,1026.4992 c 0,0 2.246575,1.0959 4.054794,0"
         style="fill:#e7e7c2;fill-opacity:1;stroke:#000000;stroke-width:0.97694409;stroke-linecap:round;stroke-linejoin:round;stroke-miterlimit:4;stroke-opacity:1;stroke-dasharray:none;stroke-dashoffset:0" />
      <path
         inkscape:connector-curvature="0"
         id="path4655"
         d="m 12.328767,1023.3211 c 0,0 0.328767,0.6575 2.904109,0.6575 2.575343,0 3.068493,-0.6027 3.068493,-0.6027"
         style="fill:#e7e7c2;fill-opacity:1;stroke:#000000;stroke-width:0.97694409;stroke-linecap:round;stroke-linejoin:round;stroke-miterlimit:4;stroke-opacity:1;stroke-dasharray:none;stroke-dashoffset:0" />
      <path
         transform="translate(0.05479452,1020.3074)"
         d="m 15.835617,5.1506848 c 0,0.5144571 -0.282122,0.9315069 -0.630137,0.9315069 -0.348015,0 -0.630137,-0.4170498 -0.630137,-0.9315069 0,-0.514457 0.282122,-0.9315068 0.630137,-0.9315068 0.348015,0 0.630137,0.4170498 0.630137,0.9315068 z"
         sodipodi:ry="0.93150687"
         sodipodi:rx="0.63013697"
         sodipodi:cy="5.1506848"
         sodipodi:cx="15.20548"
         id="path4659"
         style="fill:#000000;fill-opacity:1;stroke:none"
         sodipodi:type="arc" />
      <path
         sodipodi:nodetypes="ccsccsc"
         transform="translate(0,1020.3622)"
         inkscape:connector-curvature="0"
         id="path4661"
         d="m 11.39726,15.671233 0,10.027397 c 0,0 1.643975,0.628349 4,0.60274 5.041097,-0.05479 5.369863,-0.931507 5.369863,-0.931507 l 0.05479,-10.794521 c 0,0 -0.110506,1.382288 -5.589041,1.424658 -2.90454,0.02246 -3.835617,-0.328767 -3.835612,-0.328767 z"
         style="fill:#068700;fill-opacity:1;stroke:#000000;stroke-width:0.97694409;stroke-linecap:round;stroke-linejoin:round;stroke-opacity:1" />
    </g>
  </g>
</svg>
