<?xml version="1.0" encoding="UTF-8" standalone="no"?>
<!-- Created with Inkscape (http://www.inkscape.org/) -->

<svg
   xmlns:dc="http://purl.org/dc/elements/1.1/"
   xmlns:cc="http://creativecommons.org/ns#"
   xmlns:rdf="http://www.w3.org/1999/02/22-rdf-syntax-ns#"
   xmlns:svg="http://www.w3.org/2000/svg"
   xmlns="http://www.w3.org/2000/svg"
   xmlns:xlink="http://www.w3.org/1999/xlink"
   xmlns:sodipodi="http://sodipodi.sourceforge.net/DTD/sodipodi-0.dtd"
   xmlns:inkscape="http://www.inkscape.org/namespaces/inkscape"
   width="300"
   height="70"
   id="svg2"
   version="1.1"
   inkscape:version="0.48.4 r9939"
   sodipodi:docname="panel2.svg"
   inkscape:export-filename="/home/victor/Projects/TCC/aventura-do-saber/src/data/img/ui/panel2.png"
   inkscape:export-xdpi="90"
   inkscape:export-ydpi="90">
  <defs
     id="defs4">
    <linearGradient
       id="linearGradient3794">
      <stop
         style="stop-color:#d5f6ff;stop-opacity:1;"
         offset="0"
         id="stop3796" />
      <stop
         style="stop-color:#81d3dd;stop-opacity:1;"
         offset="1"
         id="stop3798" />
    </linearGradient>
    <radialGradient
       inkscape:collect="always"
       xlink:href="#linearGradient3794"
       id="radialGradient3800"
       cx="94.5"
       cy="24.5"
       fx="94.5"
       fy="24.5"
       r="98.5"
       gradientTransform="matrix(2.0964467,0,0,0.2893401,-103.61421,17.411168)"
       gradientUnits="userSpaceOnUse" />
    <radialGradient
       inkscape:collect="always"
       xlink:href="#linearGradient3794"
       id="radialGradient3013"
       gradientUnits="userSpaceOnUse"
       gradientTransform="matrix(2.0964467,0,0,0.2893401,-103.61421,17.411168)"
       cx="94.5"
       cy="24.5"
       fx="94.5"
       fy="24.5"
       r="98.5" />
    <radialGradient
       inkscape:collect="always"
       xlink:href="#linearGradient3794"
       id="radialGradient3025"
       gradientUnits="userSpaceOnUse"
       gradientTransform="matrix(2.0964467,0,0,0.32994924,-103.61421,1004.7784)"
       cx="94.5"
       cy="24.5"
       fx="94.5"
       fy="24.5"
       r="98.5" />
    <radialGradient
       inkscape:collect="always"
       xlink:href="#linearGradient3794"
       id="radialGradient3011"
       gradientUnits="userSpaceOnUse"
       gradientTransform="matrix(3.1574622,0,0,0.32994924,-154.02914,1004.7784)"
       cx="94.5"
       cy="24.5"
       fx="94.5"
       fy="24.5"
       r="98.5" />
    <clipPath
       clipPathUnits="userSpaceOnUse"
       id="clipPath3812">
      <path
         sodipodi:nodetypes="csscssssc"
         id="path3814"
         d="m 289,966.23718 0,65.12502 c 0,5.54 -4.46,10 -10,10 l -294.125,0 c 2.052932,5.8325 7.5731033,10 14.125,10 l 285,0 c 8.31,0 15,-6.69 15,-15 l 0,-56.00002 c 0,-6.5519 -4.16747,-12.07207 -10,-14.125 z"
         style="fill:#59b4d8;fill-opacity:1;stroke:none"
         inkscape:connector-curvature="0" />
    </clipPath>
  </defs>
  <sodipodi:namedview
     id="base"
     pagecolor="#ffffff"
     bordercolor="#666666"
     borderopacity="1.0"
     inkscape:pageopacity="0.0"
     inkscape:pageshadow="2"
     inkscape:zoom="1"
     inkscape:cx="151.39097"
     inkscape:cy="40.587163"
     inkscape:document-units="px"
     inkscape:current-layer="layer1"
     showgrid="false"
     inkscape:window-width="1364"
     inkscape:window-height="718"
     inkscape:window-x="0"
     inkscape:window-y="0"
     inkscape:window-maximized="1" />
  <metadata
     id="metadata7">
    <rdf:RDF>
      <cc:Work
         rdf:about="">
        <dc:format>image/svg+xml</dc:format>
        <dc:type
           rdf:resource="http://purl.org/dc/dcmitype/StillImage" />
        <dc:title></dc:title>
      </cc:Work>
    </rdf:RDF>
  </metadata>
  <g
     inkscape:label="Layer 1"
     inkscape:groupmode="layer"
     id="layer1"
     transform="translate(0,-982.36218)">
    <g
       id="g3816"
       style="opacity:0.5"
       transform="matrix(-1,0,0,1,300,0)">
      <rect
         y="980.36218"
         x="-4"
         height="65"
         width="296.70206"
         id="rect3792"
         style="fill:url(#radialGradient3011);fill-opacity:1;stroke:none" />
      <path
         sodipodi:nodetypes="csscssssc"
         id="rect2987"
         d="m 289,966.23718 0,65.12502 c 0,5.54 -4.46,10 -10,10 l -294.125,0 c 2.052932,5.8325 7.5731033,10 14.125,10 l 285,0 c 8.31,0 15,-6.69 15,-15 l 0,-56.00002 c 0,-6.5519 -4.16747,-12.07207 -10,-14.125 z"
         style="fill:#59b4d8;fill-opacity:1;stroke:#000000;stroke-width:2;stroke-linecap:round;stroke-linejoin:round;stroke-miterlimit:4;stroke-opacity:1;stroke-dasharray:none"
         inkscape:connector-curvature="0" />
      <g
         clip-path="url(#clipPath3812)"
         id="g3029">
        <rect
           style="opacity:0.15;fill:#000000;fill-opacity:1;stroke:none"
           id="rect3763"
           width="15"
           height="199"
           x="273.39505"
           y="868.46503"
           transform="matrix(0.96269615,0.27058479,-0.27058479,0.96269615,0,0)" />
        <rect
           transform="matrix(0.96269615,0.27058479,-0.27058479,0.96269615,0,0)"
           y="860.34741"
           x="302.27591"
           height="199"
           width="15"
           id="rect3765"
           style="opacity:0.15;fill:#000000;fill-opacity:1;stroke:none" />
        <rect
           style="opacity:0.15;fill:#000000;fill-opacity:1;stroke:none"
           id="rect3767"
           width="15"
           height="199"
           x="331.15677"
           y="852.2298"
           transform="matrix(0.96269615,0.27058479,-0.27058479,0.96269615,0,0)" />
        <rect
           transform="matrix(0.96269615,0.27058479,-0.27058479,0.96269615,0,0)"
           y="844.11218"
           x="360.03763"
           height="199"
           width="15"
           id="rect3769"
           style="opacity:0.15;fill:#000000;fill-opacity:1;stroke:none" />
        <rect
           style="opacity:0.15;fill:#000000;fill-opacity:1;stroke:none"
           id="rect3771"
           width="15"
           height="199"
           x="388.91849"
           y="835.99457"
           transform="matrix(0.96269615,0.27058479,-0.27058479,0.96269615,0,0)" />
        <rect
           transform="matrix(0.96269615,0.27058479,-0.27058479,0.96269615,0,0)"
           y="827.87695"
           x="417.79935"
           height="199"
           width="15"
           id="rect3773"
           style="opacity:0.15;fill:#000000;fill-opacity:1;stroke:none" />
        <rect
           style="opacity:0.15;fill:#000000;fill-opacity:1;stroke:none"
           id="rect3775"
           width="15"
           height="199"
           x="446.68021"
           y="819.75934"
           transform="matrix(0.96269615,0.27058479,-0.27058479,0.96269615,0,0)" />
        <rect
           transform="matrix(0.96269615,0.27058479,-0.27058479,0.96269615,0,0)"
           y="811.64172"
           x="475.56107"
           height="199"
           width="15"
           id="rect3021"
           style="opacity:0.15;fill:#000000;fill-opacity:1;stroke:none" />
        <rect
           style="opacity:0.15;fill:#000000;fill-opacity:1;stroke:none"
           id="rect3023"
           width="15"
           height="199"
           x="504.44193"
           y="803.52411"
           transform="matrix(0.96269615,0.27058479,-0.27058479,0.96269615,0,0)" />
        <rect
           transform="matrix(0.96269615,0.27058479,-0.27058479,0.96269615,0,0)"
           y="795.40649"
           x="533.32281"
           height="199"
           width="15"
           id="rect3025"
           style="opacity:0.15;fill:#000000;fill-opacity:1;stroke:none" />
        <rect
           style="opacity:0.15;fill:#000000;fill-opacity:1;stroke:none"
           id="rect3027"
           width="15"
           height="199"
           x="562.20367"
           y="787.28888"
           transform="matrix(0.96269615,0.27058479,-0.27058479,0.96269615,0,0)" />
      </g>
    </g>
  </g>
</svg>
