<?xml version="1.0" encoding="UTF-8" standalone="no"?>
<!-- Created with Inkscape (http://www.inkscape.org/) -->

<svg
   xmlns:dc="http://purl.org/dc/elements/1.1/"
   xmlns:cc="http://creativecommons.org/ns#"
   xmlns:rdf="http://www.w3.org/1999/02/22-rdf-syntax-ns#"
   xmlns:svg="http://www.w3.org/2000/svg"
   xmlns="http://www.w3.org/2000/svg"
   xmlns:sodipodi="http://sodipodi.sourceforge.net/DTD/sodipodi-0.dtd"
   xmlns:inkscape="http://www.inkscape.org/namespaces/inkscape"
   width="600"
   height="80"
   id="svg2"
   version="1.1"
   inkscape:version="0.48.4 r9939"
   sodipodi:docname="textField.svg"
   inkscape:export-filename="/home/victor/Projects/TCC/aventura-do-saber/src/data/img/ui/textField.png"
   inkscape:export-xdpi="90"
   inkscape:export-ydpi="90">
  <defs
     id="defs4">
    <clipPath
       clipPathUnits="userSpaceOnUse"
       id="clipPath3827">
      <path
         sodipodi:nodetypes="ssssssssssssssssss"
         inkscape:connector-curvature="0"
         id="path3829"
         d="m 17,993.36218 c -8.864,0 -16,7.13602 -16,16.00002 l 0,46 c 0,8.864 7.136,16 16,16 l 566,0 c 8.864,0 16,-7.136 16,-16 l 0,-46 c 0,-8.864 -7.136,-16.00002 -16,-16.00002 z m 5,10.00002 556,0 c 6.648,0 11,4.352 11,11 l 0,36 c 0,6.648 -4.352,11 -11,11 l -556,0 c -6.648,0 -11,-4.352 -11,-11 l 0,-36 c 0,-6.648 4.352,-11 11,-11 z"
         style="fill:#9f7710;fill-opacity:1;stroke:none" />
    </clipPath>
    <filter
       inkscape:collect="always"
       id="filter3833"
       x="-0.013565217"
       width="1.0271304"
       y="-0.104"
       height="1.208">
      <feGaussianBlur
         inkscape:collect="always"
         stdDeviation="3.38"
         id="feGaussianBlur3835" />
    </filter>
    <clipPath
       clipPathUnits="userSpaceOnUse"
       id="clipPath3839">
      <path
         sodipodi:nodetypes="ssssssssssssssssss"
         inkscape:connector-curvature="0"
         id="path3841"
         d="m 17,993.36218 c -8.864,0 -16,7.13602 -16,16.00002 l 0,46 c 0,8.864 7.136,16 16,16 l 566,0 c 8.864,0 16,-7.136 16,-16 l 0,-46 c 0,-8.864 -7.136,-16.00002 -16,-16.00002 z m 5,10.00002 556,0 c 6.648,0 11,4.352 11,11 l 0,36 c 0,6.648 -4.352,11 -11,11 l -556,0 c -6.648,0 -11,-4.352 -11,-11 l 0,-36 c 0,-6.648 4.352,-11 11,-11 z"
         style="fill:#9f7710;fill-opacity:1;stroke:none" />
    </clipPath>
    <filter
       inkscape:collect="always"
       id="filter3861"
       x="-0.01264714"
       width="1.0252943"
       y="-0.12603529"
       height="1.2520706">
      <feGaussianBlur
         inkscape:collect="always"
         stdDeviation="3.0458529"
         id="feGaussianBlur3863" />
    </filter>
    <filter
       inkscape:collect="always"
       id="filter3875"
       x="-0.018562822"
       width="1.0371256"
       y="-0.59367006"
       height="2.1873401">
      <feGaussianBlur
         inkscape:collect="always"
         stdDeviation="4.5477048"
         id="feGaussianBlur3877" />
    </filter>
  </defs>
  <sodipodi:namedview
     id="base"
     pagecolor="#ffffff"
     bordercolor="#666666"
     borderopacity="1.0"
     inkscape:pageopacity="0"
     inkscape:pageshadow="2"
     inkscape:zoom="1"
     inkscape:cx="336.37097"
     inkscape:cy="63.170648"
     inkscape:document-units="px"
     inkscape:current-layer="layer1"
     showgrid="false"
     inkscape:window-width="1364"
     inkscape:window-height="718"
     inkscape:window-x="0"
     inkscape:window-y="0"
     inkscape:window-maximized="1" />
  <metadata
     id="metadata7">
    <rdf:RDF>
      <cc:Work
         rdf:about="">
        <dc:format>image/svg+xml</dc:format>
        <dc:type
           rdf:resource="http://purl.org/dc/dcmitype/StillImage" />
        <dc:title></dc:title>
      </cc:Work>
    </rdf:RDF>
  </metadata>
  <g
     inkscape:label="Layer 1"
     inkscape:groupmode="layer"
     id="layer1"
     transform="translate(0,-972.36218)">
    <rect
       style="fill:#ffffff;fill-opacity:1;stroke:none;opacity:0.9"
       id="rect3845"
       width="580"
       height="60"
       x="10"
       y="982.36218"
       rx="12"
       ry="12" />
    <path
       style="fill:#000000;fill-opacity:1;stroke:none;filter:url(#filter3875)"
       d="m 2.613961,1004.6043 c 0,0 4.1035534,-16.6495 18.245689,-16.6495 l 557.90725,-0.35355 c 0,0 18.80635,6.60355 18.80635,16.50305 0,0 -1.18935,-25.40452 -16.03858,-25.38478 l -564.210554,0.75 c 0,0 -14.710155,11.45711 -14.710155,25.13478 z"
       id="path3865"
       inkscape:connector-curvature="0"
       sodipodi:nodetypes="ccccscc" />
    <path
       style="fill:#9f7710;fill-opacity:1;stroke:none;stroke-width:2;stroke-linecap:round;stroke-linejoin:round;stroke-miterlimit:4;stroke-opacity:1;stroke-dasharray:none"
       d="M 17,1 C 8.136,1 1,8.136 1,17 l 0,46 c 0,8.864 7.136,16 16,16 l 566,0 c 8.864,0 16,-7.136 16,-16 l 0,-46 C 599,8.136 591.864,1 583,1 z m 5,10 556,0 c 6.648,0 11,4.352 11,11 l 0,36 c 0,6.648 -4.352,11 -11,11 L 22,69 C 15.352,69 11,64.648 11,58 l 0,-36 c 0,-6.648 4.352,-11 11,-11 z"
       transform="translate(0,972.36218)"
       id="rect2985"
       inkscape:connector-curvature="0"
       sodipodi:nodetypes="ssssssssssssssssss" />
    <g
       id="g3804"
       clip-path="url(#clipPath3827)"
       transform="translate(0,-20)">
      <rect
         transform="matrix(0.34650637,-0.93804762,0.93804762,0.34650637,0,0)"
         y="354.63559"
         x="-1038.043"
         height="15"
         width="150"
         id="rect3757"
         style="opacity:0.15;fill:#000000;fill-opacity:1;stroke:none" />
      <rect
         style="opacity:0.15;fill:#000000;fill-opacity:1;stroke:none"
         id="rect3759"
         width="150"
         height="15"
         x="-1027.6477"
         y="382.77698"
         transform="matrix(0.34650637,-0.93804762,0.93804762,0.34650637,0,0)" />
      <rect
         style="opacity:0.15;fill:#000000;fill-opacity:1;stroke:none"
         id="rect3761"
         width="150"
         height="15"
         x="-1017.2522"
         y="410.91837"
         transform="matrix(0.34650637,-0.93804762,0.93804762,0.34650637,0,0)" />
      <rect
         transform="matrix(0.34650637,-0.93804762,0.93804762,0.34650637,0,0)"
         y="439.05975"
         x="-1006.8569"
         height="15"
         width="150"
         id="rect3763"
         style="opacity:0.15;fill:#000000;fill-opacity:1;stroke:none" />
      <rect
         style="opacity:0.15;fill:#000000;fill-opacity:1;stroke:none"
         id="rect3765"
         width="150"
         height="15"
         x="-996.46167"
         y="467.20114"
         transform="matrix(0.34650637,-0.93804762,0.93804762,0.34650637,0,0)" />
      <rect
         transform="matrix(0.34650637,-0.93804762,0.93804762,0.34650637,0,0)"
         y="495.34253"
         x="-986.06641"
         height="15"
         width="150"
         id="rect3767"
         style="opacity:0.15;fill:#000000;fill-opacity:1;stroke:none" />
      <rect
         transform="matrix(0.34650637,-0.93804762,0.93804762,0.34650637,0,0)"
         y="523.48401"
         x="-975.67114"
         height="15"
         width="150"
         id="rect3769"
         style="opacity:0.15;fill:#000000;fill-opacity:1;stroke:none" />
      <rect
         style="opacity:0.15;fill:#000000;fill-opacity:1;stroke:none"
         id="rect3771"
         width="150"
         height="15"
         x="-965.27588"
         y="551.62549"
         transform="matrix(0.34650637,-0.93804762,0.93804762,0.34650637,0,0)" />
      <rect
         style="opacity:0.15;fill:#000000;fill-opacity:1;stroke:none"
         id="rect3773"
         width="150"
         height="15"
         x="-954.88062"
         y="579.76697"
         transform="matrix(0.34650637,-0.93804762,0.93804762,0.34650637,0,0)" />
      <rect
         transform="matrix(0.34650637,-0.93804762,0.93804762,0.34650637,0,0)"
         y="607.90845"
         x="-944.48535"
         height="15"
         width="150"
         id="rect3775"
         style="opacity:0.15;fill:#000000;fill-opacity:1;stroke:none" />
      <rect
         transform="matrix(0.34650637,-0.93804762,0.93804762,0.34650637,0,0)"
         y="636.04993"
         x="-934.09009"
         height="15"
         width="150"
         id="rect3777"
         style="opacity:0.15;fill:#000000;fill-opacity:1;stroke:none" />
      <rect
         style="opacity:0.15;fill:#000000;fill-opacity:1;stroke:none"
         id="rect3779"
         width="150"
         height="15"
         x="-923.69482"
         y="664.19141"
         transform="matrix(0.34650637,-0.93804762,0.93804762,0.34650637,0,0)" />
      <rect
         transform="matrix(0.34650637,-0.93804762,0.93804762,0.34650637,0,0)"
         y="692.33289"
         x="-913.29956"
         height="15"
         width="150"
         id="rect3781"
         style="opacity:0.15;fill:#000000;fill-opacity:1;stroke:none" />
      <rect
         style="opacity:0.15;fill:#000000;fill-opacity:1;stroke:none"
         id="rect3783"
         width="150"
         height="15"
         x="-902.9043"
         y="720.47437"
         transform="matrix(0.34650637,-0.93804762,0.93804762,0.34650637,0,0)" />
      <rect
         style="opacity:0.15;fill:#000000;fill-opacity:1;stroke:none"
         id="rect3785"
         width="150"
         height="15"
         x="-892.50903"
         y="748.61584"
         transform="matrix(0.34650637,-0.93804762,0.93804762,0.34650637,0,0)" />
      <rect
         transform="matrix(0.34650637,-0.93804762,0.93804762,0.34650637,0,0)"
         y="776.75732"
         x="-882.11377"
         height="15"
         width="150"
         id="rect3787"
         style="opacity:0.15;fill:#000000;fill-opacity:1;stroke:none" />
      <rect
         style="opacity:0.15;fill:#000000;fill-opacity:1;stroke:none"
         id="rect3789"
         width="150"
         height="15"
         x="-871.71851"
         y="804.8988"
         transform="matrix(0.34650637,-0.93804762,0.93804762,0.34650637,0,0)" />
      <rect
         transform="matrix(0.34650637,-0.93804762,0.93804762,0.34650637,0,0)"
         y="833.04028"
         x="-861.32324"
         height="15"
         width="150"
         id="rect3791"
         style="opacity:0.15;fill:#000000;fill-opacity:1;stroke:none" />
      <rect
         style="opacity:0.15;fill:#000000;fill-opacity:1;stroke:none"
         id="rect3793"
         width="150"
         height="15"
         x="-850.92798"
         y="861.18176"
         transform="matrix(0.34650637,-0.93804762,0.93804762,0.34650637,0,0)" />
      <rect
         transform="matrix(0.34650637,-0.93804762,0.93804762,0.34650637,0,0)"
         y="889.32324"
         x="-840.53271"
         height="15"
         width="150"
         id="rect3795"
         style="opacity:0.15;fill:#000000;fill-opacity:1;stroke:none" />
      <rect
         transform="matrix(0.34650637,-0.93804762,0.93804762,0.34650637,0,0)"
         y="917.46472"
         x="-830.13745"
         height="15"
         width="150"
         id="rect3797"
         style="opacity:0.15;fill:#000000;fill-opacity:1;stroke:none" />
    </g>
    <path
       sodipodi:nodetypes="ssssssssssssssssss"
       inkscape:connector-curvature="0"
       id="path3831"
       d="m 17,993.36218 c -8.864,0 -16,7.13602 -16,16.00002 l 0,46 c 0,8.864 7.136,16 16,16 l 566,0 c 8.864,0 16,-7.136 16,-16 l 0,-46 c 0,-8.864 -7.136,-16.00002 -16,-16.00002 z m 5,10.00002 556,0 c 6.648,0 11,4.352 11,11 l 0,36 c 0,6.648 -4.352,11 -11,11 l -556,0 c -6.648,0 -11,-4.352 -11,-11 l 0,-36 c 0,-6.648 4.352,-11 11,-11 z"
       style="opacity:0.75;fill:none;stroke:#000000;stroke-width:3;stroke-linecap:round;stroke-linejoin:round;stroke-miterlimit:4;stroke-opacity:1;stroke-dasharray:none;filter:url(#filter3833)"
       clip-path="url(#clipPath3839)"
       transform="translate(0,-20)" />
    <path
       sodipodi:nodetypes="ssssssssssssssssss"
       inkscape:connector-curvature="0"
       id="path3843"
       d="M 17,1 C 8.136,1 1,8.136 1,17 l 0,46 c 0,8.864 7.136,16 16,16 l 566,0 c 8.864,0 16,-7.136 16,-16 l 0,-46 C 599,8.136 591.864,1 583,1 z m 5,10 556,0 c 6.648,0 11,4.352 11,11 l 0,36 c 0,6.648 -4.352,11 -11,11 L 22,69 C 15.352,69 11,64.648 11,58 l 0,-36 c 0,-6.648 4.352,-11 11,-11 z"
       style="fill:none;fill-opacity:1;stroke:#000000;stroke-width:2;stroke-linecap:round;stroke-linejoin:round;stroke-miterlimit:4;stroke-opacity:1;stroke-dasharray:none"
       transform="translate(0,972.36218)" />
  </g>
</svg>
